<svg width="60" height="82" viewBox="0 0 60 82" fill="none" xmlns="http://www.w3.org/2000/svg">
<path d="M57.4138 30.3158L5.16247 0.524702C4.50597 0.146718 3.91909 0.166608 3.49137 0.504804L0.935013 2.03663L2.83488 4.73226V45.2362C2.83488 46.9372 3.8793 48.9067 5.17241 49.6428L53.9622 77.4644L56.4788 81.0353L58.8959 79.583C59.4231 79.3244 59.7613 78.648 59.7613 77.6931V34.7223C59.7613 33.0214 58.7168 31.0519 57.4237 30.3158H57.4138Z" fill="#89BCFF"/>
<path d="M45.0497 28.1672L1.6313 3.86684L0.935013 2.27534L2.86472 1.12149C3.29244 0.79324 3.87931 0.77335 4.5358 1.14139L56.7872 30.9325C57.5033 31.3403 58.1399 32.1361 58.5676 33.0512L58.6273 33.3198L55.5338 35.1799L45.0497 28.1672Z" fill="#C4D5E9"/>
<path d="M58.9755 34.8914L56.1605 36.5625L56.4092 37.6169L58.9755 36.0353V34.8914Z" fill="#C4D5E9"/>
<path d="M3.34217 0.305869C3.85941 -0.101956 4.57558 -0.101956 5.29176 0.305869L57.5431 30.097C58.8959 30.8728 60 32.9418 60 34.7223V77.6931C60 78.7177 59.632 79.4935 59.0153 79.8019L56.3992 81.3735L53.7832 77.6534L5.04309 49.8616C3.69031 49.0857 2.58621 47.0167 2.58621 45.2362V4.81184L0.57692 1.95705L3.34217 0.305869ZM3.0736 4.65268V45.2362C3.0736 46.8476 4.0683 48.7276 5.28182 49.4239L54.0716 77.2456L56.5285 80.7071L57.0457 80.3987L57.1452 79.6229L59.0551 78.4491C59.3137 78.29 59.4927 78.0115 59.4927 77.7031V34.7223C59.4927 33.1109 58.498 31.2309 57.2845 30.5346L5.03315 0.743522C4.49601 0.435166 3.99867 0.425221 3.61074 0.713682L1.2732 2.10626L3.06366 4.65268H3.0736Z" fill="#16110D"/>
<path d="M17.8448 66.9206L28.4383 60.9027C29.4629 60.3158 31.1837 60.3855 32.3674 61.0519L38.813 64.7323L41.8767 66.1049V67.5075H41.8568C41.7872 67.8656 41.5285 68.1938 41.1207 68.4325L28.0703 75.8529C27.6028 76.1215 26.9861 76.2508 26.3495 76.2508C25.5836 76.2508 24.7878 76.0618 24.1512 75.7037L15.6665 70.8695C15.0497 70.5214 14.6817 70.0539 14.6419 69.5167C14.6419 69.477 14.6419 69.4272 14.6419 69.4073V68.2734L17.8548 66.9405L17.8448 66.9206Z" fill="#FFD111"/>
<path d="M40.9815 67.1394L27.9311 74.5598C26.9861 75.097 25.3449 75.0274 24.2507 74.4106L15.7659 69.5764C14.6817 68.9597 14.5624 68.0148 15.4974 67.4776L28.5478 60.0572C29.4927 59.5201 31.134 59.5897 32.2281 60.2064L40.7129 65.0406C41.7971 65.6573 41.9165 66.6023 40.9815 67.1394Z" fill="#89BCFF"/>
<path d="M16.9397 68.5519L20.4808 66.4531C21.6346 65.7667 23.0769 65.7568 24.2407 66.4232L33.1234 71.5061L27.752 74.5598C26.807 75.097 25.1658 75.0274 24.0716 74.4106L17.1883 70.6606C16.1041 70.0439 15.9847 69.099 16.9198 68.5618L16.9397 68.5519Z" fill="#C4D5E9"/>
<path d="M26.3296 75.1666C26.9662 75.1666 27.5829 75.0373 28.0504 74.7688L41.1008 67.3483C41.5882 67.0698 41.8667 66.6719 41.8667 66.2243C41.8667 65.7071 41.4887 65.1898 40.8422 64.8218L32.3574 59.9876C31.1837 59.3211 29.4629 59.2515 28.4284 59.8384L15.378 67.2588C14.8906 67.5373 14.6121 67.9352 14.6121 68.3828C14.6121 68.9001 14.9901 69.4173 15.6366 69.7853L24.1214 74.6196C24.758 74.9876 25.5637 75.1666 26.3196 75.1666H26.3296ZM40.8621 66.9206L27.8117 74.341C26.9364 74.8384 25.3946 74.7688 24.38 74.1918L15.8952 69.3576C15.3979 69.0791 15.1194 68.721 15.1194 68.3828C15.1194 68.0446 15.3979 67.8158 15.6267 67.6865L28.6771 60.2661C29.5524 59.7688 31.0942 59.8384 32.1088 60.4153L40.5935 65.2495C41.0909 65.5281 41.3694 65.8861 41.3694 66.2243C41.3694 66.5625 41.0909 66.7913 40.8621 66.9206Z" fill="#16110D"/>
<path d="M0.935023 1.73821C1.44232 1.44975 2.06897 1.48955 2.71552 1.85759L54.9669 31.6487C56.3196 32.4245 57.4238 34.4935 57.4238 36.274V79.2449C57.4238 80.2097 57.0358 80.6374 56.7076 80.8264C56.4987 80.9458 56.2401 81.0055 55.9615 81.0055C55.5139 81.0055 55.0067 80.8562 54.4795 80.5479L2.46685 51.4033C1.11406 50.6275 0.00994873 48.5585 0.00994873 46.778V3.80718C0.00994873 2.83238 0.348153 2.07642 0.935023 1.72827V1.73821Z" fill="#16110D"/>
<path d="M0.258621 41.7846V46.9968C0.258621 48.5784 1.38263 50.4982 2.76526 51.284L54.6685 80.8762C56.0511 81.662 57.1751 81.0254 57.1751 79.4438V74.2316L0.258621 41.7747V41.7846Z" fill="#89BCFF"/>
<path d="M55.7825 81.473C56.071 81.473 56.3296 81.4033 56.5683 81.274C57.1154 80.9557 57.4138 80.3092 57.4138 79.4637V74.1122L57.2845 74.0426L0 41.3768V47.0068C0 48.6679 1.18368 50.6871 2.63594 51.5127L54.5391 81.1149C54.9768 81.3636 55.3946 81.4829 55.7825 81.4829V81.473ZM56.9264 74.3907V79.4538C56.9264 80.1202 56.7076 80.6175 56.3196 80.8364C55.9218 81.0651 55.3846 81.0055 54.7878 80.6673L2.88461 51.0751C1.57161 50.3291 0.497348 48.4988 0.497348 46.9969V42.2124L56.9164 74.3907H56.9264Z" fill="#16110D"/>
<path d="M53.7732 69.0592L3.65053 40.4716C3.19297 40.213 2.82494 39.5167 2.82494 38.9199V6.09496C2.82494 5.49814 3.19297 5.21963 3.65053 5.47826L53.7732 34.0658C54.2308 34.3244 54.5988 35.0207 54.5988 35.6175V68.4425C54.5988 69.0393 54.2308 69.3178 53.7732 69.0592Z" fill="#FFD111"/>
<path d="M54.1015 69.4073C54.2208 69.4073 54.3402 69.3775 54.4397 69.3178C54.6983 69.1686 54.8475 68.8503 54.8475 68.4524V35.6275C54.8475 34.9411 54.4297 34.1653 53.9025 33.8569L3.77984 5.26937C3.50133 5.11022 3.22281 5.10028 2.99403 5.22959C2.7354 5.37879 2.58621 5.69709 2.58621 6.09497V38.9199C2.58621 39.6063 3.00398 40.3821 3.53117 40.6905L53.6538 69.278C53.803 69.3675 53.9622 69.4073 54.1015 69.4073ZM3.32228 5.63742C3.40185 5.63742 3.48142 5.6772 3.52121 5.70704L53.6439 34.2946C54.0219 34.5134 54.3402 35.1202 54.3402 35.6374V68.4624C54.3402 68.6812 54.2805 68.8503 54.181 68.9C54.0816 68.9498 53.9523 68.9 53.8826 68.8602L3.75995 40.2727C3.38196 40.0539 3.06366 39.4471 3.06366 38.9299V6.10491C3.06366 5.88608 3.12335 5.71699 3.22282 5.66726C3.25266 5.64736 3.28249 5.64736 3.31234 5.64736L3.32228 5.63742Z" fill="#16110D"/>
<path d="M39.7978 51.1945L16.2533 37.597C13.3985 35.9458 11.0909 31.5294 11.0909 27.7296C11.0909 23.9299 13.3985 22.1792 16.2533 23.8205L39.7978 37.4179C42.6525 39.0691 44.9602 43.4856 44.9602 47.2853C44.9602 51.085 42.6525 52.8357 39.7978 51.1945Z" fill="#FFEDA4"/>
<path d="M40.6432 49.8417C39.947 49.8417 39.2009 49.6228 38.445 49.1852L14.9005 35.5877C11.9761 33.8967 9.5988 29.3609 9.5988 25.4717C9.5988 23.3728 10.305 21.7614 11.5285 21.0552C12.553 20.4584 13.8561 20.5579 15.189 21.3238L38.7334 34.9213C41.6578 36.6122 44.0352 41.1481 44.0352 45.0373C44.0352 47.1361 43.3289 48.7475 42.1054 49.4538C41.6578 49.7124 41.1704 49.8417 40.6432 49.8417ZM12.9907 21.2343C12.563 21.2343 12.1552 21.3337 11.807 21.5426C10.7626 22.1494 10.1658 23.5817 10.1658 25.4816C10.1658 29.1918 12.4237 33.5088 15.189 35.1102L38.7334 48.7077C39.8873 49.3742 40.9814 49.4736 41.8369 48.9763C42.8813 48.3695 43.4781 46.9372 43.4781 45.0373C43.4781 41.3271 41.2202 37.0101 38.4549 35.4087L14.9105 21.8112C14.244 21.4232 13.5875 21.2343 13.0007 21.2343H12.9907Z" fill="#16110D"/>
<path d="M41.1605 47.4544V55.7203C41.1605 56.0486 41.4987 56.4166 41.7076 56.3172L42.7918 55.7999C42.941 55.7303 43.1797 55.9292 43.2593 56.1878L44.3037 59.6295C44.4131 59.9776 44.6916 60.2661 44.9403 60.2661L45.8356 60.286C46.0643 60.286 46.1638 60.0373 46.0643 59.7091L44.9602 56.1878C44.8806 55.9292 45 55.7502 45.2089 55.8497L46.6611 56.546C46.9496 56.6852 47.059 56.347 46.8501 55.9988L41.6479 47.4843C41.4589 47.1759 41.1605 47.156 41.1605 47.4544Z" fill="#FFEDA4"/>
<path d="M44.7016 58.3165H44.6916L43.7964 58.2966C43.4284 58.2966 43.0405 57.9286 42.9012 57.461L41.8568 54.0194C41.8269 53.9199 41.7672 53.8503 41.7275 53.8205L40.693 54.3178C40.5438 54.3874 40.3548 54.3676 40.1857 54.2681C39.9668 54.1288 39.7381 53.8105 39.7381 53.4723V45.2064C39.7381 44.9279 39.9072 44.7787 40.0564 44.7389C40.2951 44.6693 40.5637 44.8085 40.7427 45.097L45.945 53.6116C46.134 53.9199 46.1439 54.2681 45.9649 54.467C45.8555 54.5864 45.6466 54.6759 45.3979 54.5566L44.1048 53.9398L45.189 57.3815C45.2785 57.6699 45.2487 57.9385 45.1194 58.1175C45.0199 58.2469 44.8707 58.3264 44.7016 58.3264V58.3165ZM41.7175 53.2535C41.7871 53.2535 41.8568 53.2734 41.9264 53.3032C42.1353 53.3927 42.3143 53.6116 42.384 53.8603L43.4284 57.3019C43.508 57.5705 43.7168 57.7396 43.7964 57.7396L44.6916 57.7594C44.6916 57.7594 44.6917 57.6799 44.6519 57.5506L43.5478 54.0293C43.4682 53.7707 43.5179 53.542 43.6671 53.4027C43.8064 53.2833 43.9954 53.2634 44.1744 53.3529L45.5073 53.9896C45.5073 53.9896 45.4874 53.9398 45.4675 53.9L40.2951 45.4352V53.4624C40.2951 53.5917 40.4145 53.7508 40.4841 53.7906L41.5285 53.2933C41.5882 53.2634 41.6479 53.2535 41.7175 53.2535Z" fill="#16110D"/>
<path d="M15.5073 31.5293C15.3879 31.4597 15.3282 31.3503 15.3282 31.211V26.9239C15.3282 26.7846 15.3879 26.7448 15.5073 26.8145L16.4125 27.3317C17.8946 28.1871 18.4814 29.2017 18.4814 30.8828C18.4814 32.5638 17.8846 32.8921 16.4125 32.0366L15.5073 31.5194V31.5293ZM16.4125 31.589C17.5862 32.2654 18.0537 31.9968 18.0537 30.6441C18.0537 29.2913 17.5862 28.4856 16.4125 27.8092L15.746 27.4212V31.211L16.4125 31.599V31.589Z" fill="black"/>
<path d="M19.3568 33.7475C19.2374 33.6779 19.1777 33.5684 19.1777 33.4292V29.142C19.1777 29.0028 19.2374 28.963 19.3568 29.0326L21.3561 30.1865C21.4755 30.2561 21.5351 30.3655 21.5351 30.5048V30.5446C21.5351 30.6838 21.4755 30.7236 21.3561 30.654L19.5955 29.6394V30.9624L21.2566 31.9173C21.376 31.9869 21.4357 32.0963 21.4357 32.2356V32.2753C21.4357 32.4146 21.376 32.4544 21.2566 32.3848L19.5955 31.4299V33.4391L21.3561 34.4537C21.4755 34.5233 21.5351 34.6328 21.5351 34.772V34.8118C21.5351 34.9511 21.4755 34.9909 21.3561 34.9212L19.3568 33.7674V33.7475Z" fill="black"/>
<path d="M22.5796 35.6076C22.4602 35.5379 22.4005 35.4285 22.4005 35.2893V31.0021C22.4005 30.8629 22.4602 30.8231 22.5796 30.8927L22.6293 30.9226C22.7487 30.9922 22.8083 31.1016 22.8083 31.2409V35.2793L24.5093 36.2541C24.6286 36.3237 24.6883 36.4332 24.6883 36.5724V36.6122C24.6883 36.7515 24.6286 36.7913 24.5093 36.7216L22.5796 35.6076Z" fill="black"/>
<path d="M25.504 37.2986C25.3846 37.229 25.3249 37.1195 25.3249 36.9803V32.6932C25.3249 32.5539 25.3846 32.5141 25.504 32.5837L25.5537 32.6136C25.6731 32.6832 25.7327 32.7926 25.7327 32.9319V37.219C25.7327 37.3583 25.6731 37.3981 25.5537 37.3284L25.504 37.2986Z" fill="black"/>
<path d="M28.0703 38.7807C27.9609 38.721 27.9012 38.6315 27.8614 38.4922L26.2898 33.29C26.2301 33.1109 26.2898 33.0413 26.429 33.1209L26.4987 33.1606C26.6081 33.2203 26.6678 33.3099 26.7076 33.4491L28.1499 38.2038L29.5822 35.1102C29.622 35.0207 29.6817 35.0008 29.7911 35.0704L29.8608 35.1102C30 35.1898 30.0597 35.3191 30 35.4286L28.4284 38.8205C28.3886 38.91 28.3289 38.9299 28.2195 38.8602L28.0802 38.7807H28.0703Z" fill="black"/>
<path d="M30.7261 40.3125C30.6068 40.2429 30.5471 40.1335 30.5471 39.9942V35.7071C30.5471 35.5678 30.6068 35.528 30.7261 35.5976L32.7255 36.7515C32.8448 36.8211 32.9045 36.9305 32.9045 37.0698V37.1096C32.9045 37.2489 32.8448 37.2886 32.7255 37.219L30.9649 36.2044V37.5274L32.626 38.4823C32.7454 38.5519 32.805 38.6613 32.805 38.8006V38.8404C32.805 38.9796 32.7454 39.0194 32.626 38.9498L30.9649 37.9949V40.0042L32.7255 41.0187C32.8448 41.0884 32.9045 41.1978 32.9045 41.3371V41.3768C32.9045 41.5161 32.8448 41.5559 32.7255 41.4862L30.7261 40.3324V40.3125Z" fill="black"/>
<path d="M33.8296 42.1129C33.7102 42.0433 33.6505 41.9338 33.6505 41.7946V37.5074C33.6505 37.3682 33.7102 37.3284 33.8296 37.398L34.9834 38.0645C35.7593 38.5121 36.2865 39.4073 36.2865 40.2826C36.2865 41.0187 35.9284 41.337 35.3514 41.158L36.4158 43.3463C36.5152 43.5452 36.4655 43.6348 36.3064 43.5452L36.177 43.4657C36.0776 43.406 36.0179 43.3364 35.9582 43.2071L34.8243 40.8994L34.0683 40.4617V42.0333C34.0683 42.1725 34.0086 42.2123 33.8892 42.1427L33.8395 42.1129H33.8296ZM34.9834 40.5412C35.5007 40.8397 35.8488 40.6407 35.8488 40.0439C35.8488 39.4471 35.5106 38.8403 34.9834 38.5419L34.0683 38.0147V40.024L34.9834 40.5512V40.5412Z" fill="black"/>
</svg>
