<svg width="81" height="84" viewBox="0 0 81 84" fill="none" xmlns="http://www.w3.org/2000/svg">
<path d="M26.7065 75.276V59.9446L39.7573 67.5503V82.8817L26.7065 75.276Z" fill="#FFD111"/>
<path d="M26.7065 59.9446L40.5539 51.8697L53.7793 59.399L39.7573 67.5503L26.7065 59.9446Z" fill="#D9B41C"/>
<path d="M26.7065 60.9049L40.543 52.83L53.7793 60.3593L39.7573 68.5106L26.7065 60.9049Z" fill="#FFF8D9"/>
<path d="M53.9975 59.519V59.2681L53.7793 59.148L40.543 51.6187L26.7065 59.6936L26.4883 59.8137V60.0537V75.3851L39.5391 82.9908L39.7573 83.1109L39.9755 82.9908L53.9975 74.8395V59.5081V59.519ZM27.1321 59.9446L40.5539 52.1098L53.3537 59.399L39.7464 67.2993L32.348 62.9891L27.1321 59.9446V59.9446ZM26.9247 75.156V60.3156L32.4681 63.5456L39.5391 67.6703V82.5107L26.9138 75.1451L26.9247 75.156Z" fill="#DBB100"/>
<path d="M49.1417 68.4124L44.9405 70.8349C44.3622 71.1622 43.9039 70.8131 43.9039 70.0492C43.9039 69.2854 44.3731 68.3906 44.9405 68.0632L49.1417 65.6407C49.72 65.3134 50.1783 65.6626 50.1783 66.4264C50.1783 67.1903 49.7091 68.085 49.1417 68.4124Z" fill="#727272"/>
<path d="M44.9405 68.085C44.3622 68.4124 43.9039 69.3072 43.9039 70.071C43.9039 70.1692 43.9803 70.2456 44.0021 70.3329C44.0676 70.3111 44.0785 70.3002 44.144 70.2565L48.3451 67.8341C48.9234 67.5067 49.3817 66.6119 49.3817 65.8481C49.3817 65.7498 49.3817 65.6516 49.3599 65.5643C49.2944 65.5862 49.218 65.6189 49.1417 65.6625L44.9405 68.085Z" fill="#D9B41C"/>
<path d="M49.9273 65.4006C49.8073 65.3352 49.6763 65.3024 49.5345 65.3024H49.4908C49.3381 65.3133 49.1853 65.3679 49.0325 65.4552L44.8314 67.8777C44.1876 68.2487 43.6856 69.2089 43.6856 70.0492V70.0819C43.6966 70.5402 43.8602 70.9112 44.1548 71.0749C44.2749 71.1404 44.3949 71.1731 44.5259 71.1731C44.6895 71.1731 44.8751 71.1185 45.0496 71.0203L49.2508 68.5979C49.8946 68.2268 50.3965 67.2666 50.3965 66.4264C50.3965 65.9462 50.2219 65.5643 49.9273 65.4006V65.4006ZM44.1221 69.9619C44.1658 69.3071 44.5695 68.5542 45.0496 68.2814L49.1635 65.9026C49.1416 66.5791 48.727 67.3648 48.236 67.6485L44.1221 70.0273C44.1221 70.0273 44.1221 69.9837 44.1221 69.9619ZM49.0216 68.2268L44.8205 70.6493C44.6896 70.7257 44.504 70.7912 44.3622 70.7039C44.2858 70.6602 44.2312 70.5839 44.1876 70.4856C44.2094 70.4856 44.2203 70.4638 44.2422 70.4529L48.4433 68.0304C49.0871 67.6594 49.5891 66.6992 49.5891 65.859C49.5891 65.8262 49.5891 65.7935 49.5891 65.7607C49.6327 65.7607 49.6654 65.7607 49.7091 65.7935C49.8618 65.8807 49.9601 66.1317 49.9601 66.4482C49.9601 67.1356 49.5345 67.954 49.0325 68.2487L49.0216 68.2268Z" fill="#16110D"/>
<path d="M45.9335 55.187L31.977 63.2619V67.2666L35.1415 69.1107V65.0842L49.1198 56.9984L45.9335 55.187Z" fill="#FFD111"/>
<path d="M48.9452 56.3982L45.3334 54.3358L31.3878 62.4108L31.1695 62.5308V62.7818V66.7865L34.7596 68.8816V64.615L48.9561 56.3982H48.9452ZM45.3334 54.8269L48.0941 56.3982L34.5413 64.244L31.8024 62.6617L45.3224 54.8269H45.3334ZM31.5951 66.5464V63.0327L34.3231 64.615V68.1396L31.5951 66.5464Z" fill="#16110D"/>
<path d="M37.4549 79.739L34.7923 78.2005C34.4868 78.0259 34.2358 77.5457 34.2358 77.1311V74.4685C34.2358 74.0539 34.4868 73.8684 34.7923 74.043L37.4549 75.5815C37.7604 75.7561 38.0114 76.2363 38.0114 76.6509V79.3135C38.0114 79.7281 37.7604 79.9136 37.4549 79.739Z" fill="#727272"/>
<path d="M37.2039 79.0843C37.0948 79.0843 36.9857 79.0516 36.8765 78.9861L34.214 77.4475C33.843 77.2293 33.5483 76.6836 33.5483 76.1926V73.5301C33.5483 73.2355 33.6575 73.0063 33.843 72.8972C34.0067 72.799 34.2249 72.8099 34.4213 72.9299L37.0839 74.4685C37.4549 74.6867 37.7495 75.2323 37.7495 75.7234V78.3859C37.7495 78.6805 37.6404 78.9097 37.4549 79.0188C37.3785 79.0625 37.2912 79.0843 37.2039 79.0843V79.0843ZM34.1049 73.2573C34.1049 73.2573 34.083 73.2573 34.0721 73.2573C34.0285 73.2791 33.9848 73.3773 33.9848 73.5192V76.1817C33.9848 76.5091 34.1921 76.9237 34.4322 77.0656L37.0948 78.6042C37.0948 78.6042 37.2039 78.6587 37.2475 78.6369C37.2912 78.6151 37.3348 78.5169 37.3348 78.3641V75.7016C37.3348 75.3742 37.1275 74.9595 36.8874 74.8177L34.2249 73.2791C34.2249 73.2791 34.1485 73.2354 34.1049 73.2354V73.2573Z" fill="#16110D"/>
<path d="M40.2483 54.8269C36.7456 54.8269 34.0284 57.4895 34.0284 59.781C34.0284 62.0725 36.8219 64.0476 40.2483 64.0476C43.6747 64.0476 46.4682 62.138 46.4682 59.781C46.4682 57.424 43.7511 54.8269 40.2483 54.8269Z" fill="#16110D"/>
<path d="M45.377 58.5043C45.377 60.4139 43.0745 61.9634 40.2374 61.9634C37.4003 61.9634 35.0978 60.4139 35.0978 58.5043C35.0978 56.5947 37.4003 55.0452 40.2374 55.0452C43.0745 55.0452 45.377 56.5947 45.377 58.5043Z" fill="#89BCFF"/>
<path d="M45.377 59.4318C45.377 59.4318 43.0745 61.9634 40.2483 61.9634C37.4221 61.9634 35.1087 59.4318 35.1087 59.4318C35.1087 57.5222 37.4112 55.9727 40.2483 55.9727C43.0855 55.9727 45.3879 57.5222 45.3879 59.4318H45.377Z" fill="#C4D5E9"/>
<path d="M40.2483 62.1816C37.3021 62.1816 34.9014 60.5339 34.9014 58.5043C34.9014 56.4746 37.3021 54.8269 40.2483 54.8269C43.1946 54.8269 45.5952 56.4746 45.5952 58.5043C45.5952 60.5339 43.1946 62.1816 40.2483 62.1816ZM40.2483 55.2525C37.5312 55.2525 35.327 56.7147 35.327 58.5043C35.327 60.2938 37.5312 61.7561 40.2483 61.7561C42.9654 61.7561 45.1696 60.2938 45.1696 58.5043C45.1696 56.7147 42.9654 55.2525 40.2483 55.2525Z" fill="#16110D"/>
<path d="M40.2483 36.8111C39.8009 36.8111 39.4299 37.1821 39.4299 37.6513V57.8822C39.4299 58.3406 39.8009 58.7225 40.2483 58.7225C40.6957 58.7225 41.0667 58.3515 41.0667 57.8822V37.6513C41.0667 37.193 40.6957 36.8111 40.2483 36.8111Z" fill="#16110D"/>
<path d="M19.3627 17.5404L19.8755 11.3533H12.87L13.3829 17.5404C13.3829 17.5404 13.3829 17.5731 13.3829 17.584C13.3829 17.6386 13.4047 17.6932 13.4047 17.7477V17.8787H13.4265C13.6448 18.8499 14.8778 19.6028 16.3728 19.6028C17.8677 19.6028 19.1117 18.8499 19.319 17.8787V17.7477C19.3409 17.6932 19.3518 17.6386 19.3518 17.584C19.3518 17.5731 19.3518 17.5513 19.3518 17.5404H19.3627Z" fill="#89BCFF"/>
<path d="M20.1156 11.146H12.8918C12.7609 11.146 12.6518 11.2551 12.6627 11.3861L13.1755 17.5186V17.5841C13.1755 17.5841 13.1755 17.6823 13.1974 17.7696L13.2628 18.097C13.6011 19.1009 14.8669 19.8211 16.3728 19.8211C17.8786 19.8211 19.1553 19.1009 19.4827 18.097L19.5591 17.7369C19.5591 17.7369 19.5809 17.6496 19.5809 17.5841V17.5295L20.1047 11.146H20.1156ZM19.1553 17.5295V17.595C19.1553 17.595 19.1553 17.6278 19.1553 17.6605C19.1553 17.6823 19.1553 17.715 19.1444 17.7478V17.846C19.0462 18.217 18.7843 18.5553 18.4133 18.8172L18.8171 13.012L17.6058 13.7212H16.3946V19.3955C15.0306 19.3955 13.8412 18.7299 13.6557 17.8351V17.726C13.6557 17.726 13.6339 17.6714 13.6229 17.6496C13.6229 17.6277 13.6229 17.6059 13.6229 17.6059V17.5514L13.1319 11.5716H19.6682L19.1772 17.5295H19.1553Z" fill="#16110D"/>
<path d="M19.8755 11.3533C19.8755 12.6628 18.3042 13.7103 16.3728 13.7103C14.4414 13.7103 12.87 12.6519 12.87 11.3533C12.87 10.0548 14.4414 8.58167 16.3728 8.58167C18.3042 8.58167 19.8755 10.0439 19.8755 11.3533Z" fill="#89BCFF"/>
<path d="M16.3728 13.9286C14.3213 13.9286 12.6627 12.7719 12.6627 11.3533C12.6627 9.93475 14.2886 8.37433 16.3728 8.37433C18.457 8.37433 20.0829 9.97839 20.0829 11.3533C20.0829 12.7282 18.4133 13.9286 16.3728 13.9286ZM16.3728 8.7999C14.5505 8.7999 13.0882 10.1966 13.0882 11.3533C13.0882 12.51 14.5614 13.503 16.3728 13.503C18.1842 13.503 19.6573 12.5427 19.6573 11.3533C19.6573 10.1639 18.1951 8.7999 16.3728 8.7999Z" fill="#16110D"/>
<path d="M19.3736 10.6113C19.3736 11.7243 18.0314 12.63 16.3728 12.63C14.7142 12.63 13.372 11.7243 13.372 10.6113C13.372 9.49828 14.7142 8.59259 16.3728 8.59259C18.0314 8.59259 19.3736 9.49828 19.3736 10.6113Z" fill="#C4D5E9"/>
<path d="M16.3728 12.8373C14.605 12.8373 13.1646 11.8334 13.1646 10.6004C13.1646 9.36731 14.605 8.3634 16.3728 8.3634C18.1405 8.3634 19.5809 9.36731 19.5809 10.6004C19.5809 11.8334 18.1405 12.8373 16.3728 12.8373ZM16.3728 8.79989C14.8342 8.79989 13.5902 9.60737 13.5902 10.6113C13.5902 11.6152 14.8342 12.4227 16.3728 12.4227C17.9114 12.4227 19.1553 11.6152 19.1553 10.6113C19.1553 9.60737 17.9114 8.79989 16.3728 8.79989Z" fill="#16110D"/>
<path d="M17.1039 8.61435C16.842 8.53796 16.6783 8.78894 16.5474 8.97445C16.4928 9.05083 16.4055 9.1927 16.3837 9.20361C16.3401 9.18178 16.2418 9.05083 16.1873 8.97445C16.0563 8.77803 15.8818 8.54888 15.6308 8.61435C14.8888 8.81076 14.4086 9.96746 14.4086 10.4039C14.4086 11.0805 15.2707 11.6043 16.3619 11.6043C17.4531 11.6043 18.3151 11.0805 18.3151 10.4039C18.3151 9.96746 17.7914 8.79985 17.093 8.61435H17.1039Z" fill="#16110D"/>
<path d="M0.659454 10.1748C0.222973 10.1966 -0.0389228 10.4149 0.00472534 10.7204C0.0920217 11.3206 0.528501 12.4554 2.2526 14.0158C3.90032 15.489 5.63532 16.231 6.63923 16.5693C7.13027 16.7329 7.61042 16.7111 7.85048 16.5038L15.7508 9.8147C15.9472 9.65102 15.5653 9.31274 15.2052 9.33456L0.659454 10.1857V10.1748Z" fill="#C4D5E9"/>
<path d="M8.52704 18.5553C8.42883 18.5553 8.33063 18.5552 8.22151 18.5334C7.25033 18.4134 5.3189 18.0315 3.34382 16.8639C1.33601 15.6745 0.626711 14.6378 0.397559 13.9722C0.332086 13.7976 0.342997 13.6339 0.430293 13.4702C0.539414 13.2629 0.768596 13.1101 1.07413 13.0228L15.1615 9.31276C15.478 9.22546 15.8708 9.35641 16.0236 9.58556C16.1109 9.72742 16.1109 9.8911 16.0127 10.0111L9.59643 18.1297C9.3891 18.3916 8.99626 18.5334 8.52704 18.5334V18.5553ZM15.3689 9.72741C15.3689 9.72741 15.3034 9.72742 15.2707 9.73833L1.18323 13.4484C0.997722 13.503 0.855892 13.5794 0.801332 13.6776C0.779508 13.7212 0.779508 13.7758 0.801332 13.8303C0.975925 14.3214 1.56515 15.3144 3.57297 16.4929C5.48257 17.6168 7.34854 17.9878 8.28697 18.0969C8.78893 18.1624 9.14902 18.0206 9.26905 17.8678L15.6526 9.79288C15.6526 9.79288 15.4889 9.7165 15.3798 9.7165L15.3689 9.72741Z" fill="#16110D"/>
<path d="M31.8461 8.6253C32.2825 8.60348 32.5554 8.39614 32.5117 8.0906C32.4353 7.49044 32.0206 6.3665 30.3074 4.79516C28.6816 3.31112 26.9466 2.55821 25.9536 2.21994C25.4625 2.05626 24.9824 2.07807 24.7423 2.27448L16.7001 8.88718C16.5037 9.05086 16.8748 9.38914 17.2348 9.36731L31.857 8.6253H31.8461Z" fill="#C4D5E9"/>
<path d="M17.0493 9.41097C16.7874 9.41097 16.5037 9.29093 16.3837 9.10543C16.2964 8.96357 16.3073 8.79989 16.4055 8.67986L22.9745 0.615862C23.2255 0.310324 23.7493 0.168455 24.3495 0.24484C25.3206 0.375784 27.2521 0.757709 29.2162 1.93621C31.2022 3.12562 31.9006 4.17318 32.1188 4.83882C32.1734 5.01341 32.1625 5.17709 32.0861 5.32986C31.977 5.53718 31.7478 5.68996 31.4314 5.77725L17.2457 9.40004C17.1802 9.42187 17.1148 9.42187 17.0384 9.42187L17.0493 9.41097ZM16.7765 8.909C16.842 8.96356 17.0057 9.01812 17.1475 8.97447L31.3332 5.35168C31.5296 5.30804 31.6714 5.22073 31.7151 5.12252C31.7369 5.07888 31.7478 5.02432 31.7151 4.96976C31.5514 4.47871 30.9731 3.47481 28.9871 2.29631C27.0993 1.16146 25.2333 0.790447 24.284 0.659503C23.782 0.59403 23.4219 0.724971 23.291 0.87774L16.7547 8.8981L16.7765 8.909Z" fill="#16110D"/>
<path d="M17.584 9.38912C17.584 9.77105 17.0384 10.0766 16.3728 10.0766C15.7072 10.0766 15.1616 9.77105 15.1616 9.38912C15.1616 9.0072 15.7072 8.70166 16.3728 8.70166C17.0384 8.70166 17.584 9.0072 17.584 9.38912Z" fill="#C4D5E9"/>
<path d="M16.3728 10.2839C15.5762 10.2839 14.9433 9.89106 14.9433 9.3891C14.9433 8.88715 15.5653 8.49432 16.3728 8.49432C17.1803 8.49432 17.8023 8.88715 17.8023 9.3891C17.8023 9.89106 17.1803 10.2839 16.3728 10.2839ZM16.3728 8.90897C15.8054 8.90897 15.3798 9.15996 15.3798 9.3782C15.3798 9.59644 15.8054 9.84741 16.3728 9.84741C16.9402 9.84741 17.3658 9.59644 17.3658 9.3782C17.3658 9.15996 16.9402 8.90897 16.3728 8.90897Z" fill="#16110D"/>
<path d="M66.47 17.4313L66.9828 11.2441H59.9773L60.4902 17.4313C60.4902 17.4313 60.4902 17.464 60.4902 17.4749C60.4902 17.5295 60.512 17.5841 60.512 17.6386V17.7696H60.5338C60.7521 18.7407 61.9851 19.4936 63.48 19.4936C64.975 19.4936 66.219 18.7407 66.4263 17.7696V17.6386C66.4481 17.5841 66.459 17.5295 66.459 17.4749C66.459 17.4531 66.459 17.4422 66.459 17.4313H66.47Z" fill="#89BCFF"/>
<path d="M67.212 11.0369H59.9882C59.8573 11.0369 59.7481 11.146 59.7591 11.2769L60.2719 17.4095V17.475C60.2719 17.475 60.2719 17.5732 60.2937 17.6605L60.3592 17.9878C60.6975 18.9917 61.9633 19.712 63.4691 19.712C64.975 19.712 66.2517 18.9917 66.5791 17.9878L66.6554 17.6277C66.6554 17.6277 66.6773 17.5404 66.6773 17.475V17.4204L67.201 11.0369H67.212ZM66.2517 17.4204V17.4859C66.2517 17.4859 66.2517 17.5186 66.2517 17.5514C66.2517 17.5732 66.2517 17.6059 66.2408 17.6387V17.7369C66.1426 18.1079 65.8807 18.4461 65.5097 18.708L65.9134 12.9028L64.7022 13.6121H63.491V19.2864C62.1269 19.2864 60.9375 18.6207 60.752 17.726V17.6168C60.752 17.6168 60.7302 17.5623 60.7193 17.5404C60.7193 17.5186 60.7193 17.4968 60.7193 17.4968V17.4422L60.2283 11.4624H66.7646L66.2735 17.4095L66.2517 17.4204Z" fill="#16110D"/>
<path d="M66.9828 11.2442C66.9828 12.5536 65.4115 13.6012 63.4801 13.6012C61.5486 13.6012 59.9773 12.5427 59.9773 11.2442C59.9773 9.94565 61.5486 8.47253 63.4801 8.47253C65.4115 8.47253 66.9828 9.93474 66.9828 11.2442Z" fill="#89BCFF"/>
<path d="M63.48 13.8194C61.4286 13.8194 59.77 12.6627 59.77 11.2442C59.77 9.82562 61.3958 8.2652 63.48 8.2652C65.5642 8.2652 67.1902 9.86926 67.1902 11.2442C67.1902 12.6191 65.5206 13.8194 63.48 13.8194ZM63.48 8.69077C61.6577 8.69077 60.1955 10.0875 60.1955 11.2442C60.1955 12.4009 61.6686 13.3939 63.48 13.3939C65.2914 13.3939 66.7646 12.4336 66.7646 11.2442C66.7646 10.0548 65.3024 8.69077 63.48 8.69077Z" fill="#16110D"/>
<path d="M66.4809 10.5022C66.4809 11.6152 65.1387 12.5209 63.4801 12.5209C61.8214 12.5209 60.4792 11.6152 60.4792 10.5022C60.4792 9.38917 61.8214 8.48346 63.4801 8.48346C65.1387 8.48346 66.4809 9.38917 66.4809 10.5022Z" fill="#C4D5E9"/>
<path d="M63.4801 12.7391C61.7123 12.7391 60.2719 11.7352 60.2719 10.5022C60.2719 9.26911 61.7123 8.2652 63.4801 8.2652C65.2478 8.2652 66.6882 9.26911 66.6882 10.5022C66.6882 11.7352 65.2478 12.7391 63.4801 12.7391ZM63.4801 8.70167C61.9415 8.70167 60.6975 9.50917 60.6975 10.5131C60.6975 11.517 61.9415 12.3245 63.4801 12.3245C65.0186 12.3245 66.2626 11.517 66.2626 10.5131C66.2626 9.50917 65.0186 8.70167 63.4801 8.70167Z" fill="#16110D"/>
<path d="M64.2112 8.50528C63.9493 8.42889 63.7856 8.67987 63.6546 8.86538C63.6001 8.94176 63.5128 9.08361 63.491 9.09452C63.4473 9.0727 63.3491 8.94176 63.2946 8.86538C63.1636 8.66896 62.989 8.43981 62.738 8.50528C61.996 8.7017 61.5159 9.85837 61.5159 10.2949C61.5159 10.9714 62.378 11.4952 63.4692 11.4952C64.5604 11.4952 65.4224 10.9714 65.4224 10.2949C65.4224 9.85837 64.8986 8.69078 64.2002 8.50528H64.2112Z" fill="#16110D"/>
<path d="M55.2633 1.95807C55.0341 1.75074 54.5649 1.718 54.0739 1.87077C53.1136 2.1763 51.455 2.87468 49.6545 4.40237C47.9522 5.85367 47.5048 7.02125 47.3957 7.65415C47.3411 7.9706 47.603 8.18885 48.0395 8.22158L62.5525 9.20366C62.9126 9.22549 63.2946 8.89812 63.0981 8.72353L55.2524 1.94716L55.2633 1.95807Z" fill="#C4D5E9"/>
<path d="M62.749 9.26909C62.6835 9.26909 62.6071 9.26909 62.5416 9.24726L48.476 5.53717C48.1705 5.46079 47.9413 5.29711 47.8322 5.08978C47.7558 4.9261 47.7449 4.7515 47.8104 4.57691C48.0723 3.86763 48.8034 2.78733 50.7457 1.69613C52.7754 0.550366 54.5213 0.15754 55.6452 0.0156835C56.2345 -0.0497887 56.7474 0.0920578 56.9874 0.397595L63.4146 8.52708C63.5128 8.64711 63.5237 8.81079 63.4255 8.95265C63.3055 9.13815 63.0327 9.25818 62.7708 9.25818L62.749 9.26909ZM55.8962 0.43033C55.8198 0.43033 55.7435 0.43034 55.6671 0.441252C54.7832 0.550373 53.0045 0.899548 50.9312 2.06714C49.0107 3.15834 48.3887 4.2059 48.1923 4.72968C48.1705 4.79515 48.1705 4.83881 48.1923 4.89337C48.2469 4.99158 48.3778 5.07886 48.5742 5.12251L62.6398 8.83262C62.7817 8.86535 62.9454 8.81079 63.0109 8.76715L56.6164 0.681319C56.5182 0.550374 56.2563 0.441252 55.8853 0.441252L55.8962 0.43033Z" fill="#16110D"/>
<path d="M71.6423 16.602C71.8714 16.8093 72.3407 16.8421 72.8208 16.7002C73.7811 16.4056 75.4506 15.7072 77.262 14.1905C78.9861 12.7501 79.4444 11.5716 79.5644 10.9387C79.619 10.6222 79.368 10.404 78.9315 10.3712L64.4949 9.28003C64.1348 9.25821 63.7529 9.58558 63.9384 9.74926L71.6423 16.6129V16.602Z" fill="#C4D5E9"/>
<path d="M71.0094 18.5553C70.5402 18.5553 70.1473 18.4025 69.94 18.1406L63.6656 9.95657C63.5674 9.82562 63.5674 9.66194 63.6656 9.531C63.8183 9.30184 64.2221 9.1709 64.5385 9.2582L78.5169 13.0556C78.8224 13.1429 79.0516 13.2957 79.1498 13.503C79.2261 13.6667 79.237 13.8413 79.1716 14.0158C78.8988 14.7251 78.1568 15.7945 76.2035 16.8857C74.1629 18.0206 72.4061 18.4134 71.2931 18.5334C71.2058 18.5334 71.1076 18.5443 71.0312 18.5443L71.0094 18.5553ZM70.2783 17.8896C70.3874 18.0424 70.7366 18.1733 71.2276 18.1188C72.3079 17.9988 73.9993 17.6168 75.9853 16.5147C77.9276 15.4344 78.5605 14.3869 78.7678 13.8631C78.7897 13.7976 78.7897 13.743 78.7678 13.6994C78.7133 13.6012 78.5823 13.5139 78.3968 13.4702L64.4185 9.67284C64.2767 9.62919 64.113 9.69468 64.0475 9.73833L70.2892 17.8787L70.2783 17.8896Z" fill="#16110D"/>
<path d="M64.6913 9.27998C64.6913 9.6619 64.1457 9.96744 63.48 9.96744C62.8144 9.96744 62.2688 9.6619 62.2688 9.27998C62.2688 8.89806 62.8144 8.59253 63.48 8.59253C64.1457 8.59253 64.6913 8.89806 64.6913 9.27998Z" fill="#C4D5E9"/>
<path d="M63.48 10.1857C62.6835 10.1857 62.0506 9.79287 62.0506 9.29091C62.0506 8.78896 62.6726 8.39612 63.48 8.39612C64.2875 8.39612 64.9095 8.78896 64.9095 9.29091C64.9095 9.79287 64.2875 10.1857 63.48 10.1857ZM63.48 8.81078C62.9126 8.81078 62.4871 9.06175 62.4871 9.27999C62.4871 9.49823 62.9126 9.74922 63.48 9.74922C64.0475 9.74922 64.473 9.49823 64.473 9.27999C64.473 9.06175 64.0475 8.81078 63.48 8.81078Z" fill="#16110D"/>
<path d="M31.3441 27.4485L17.5731 16.3401C17.2021 16.0564 17.1038 15.5326 17.3439 15.1179C17.5949 14.6924 18.0968 14.5396 18.5442 14.7251L34.3121 22.1125L33.6683 23.4875L22.3962 18.206C22.3962 18.206 22.3307 18.2388 22.3634 18.2606L31.7805 25.8663L31.3331 27.4485H31.3441Z" fill="#16110D"/>
<path d="M31.4314 27.7214L17.4749 16.4601C17.0493 16.1328 16.9293 15.5217 17.213 15.0307C17.4967 14.5396 18.0859 14.3541 18.6097 14.5833L34.5195 22.0471L33.7447 23.7057L23.2473 18.7844L31.9661 25.8227L31.4205 27.7323L31.4314 27.7214ZM18.1623 14.8015C17.8895 14.8015 17.6276 14.9434 17.4858 15.1943C17.2784 15.5435 17.3548 15.98 17.6713 16.2201L31.2568 27.1867L31.6169 25.9318L22.2762 18.3916C22.1998 18.337 22.1889 18.2279 22.2325 18.1515C22.2871 18.0751 22.3853 18.0424 22.4726 18.0751L33.6029 23.2911L34.1157 22.1999L18.4897 14.8779C18.3806 14.8342 18.2714 14.8124 18.1732 14.8124L18.1623 14.8015Z" fill="#89BCFF"/>
<path d="M49.3708 27.0448L48.4214 25.8663L58.0131 18.1188C58.0131 18.1188 58.0131 18.1079 58.0131 18.1188L46.5555 23.4984L45.9117 22.1235L61.6468 14.736C62.116 14.5287 62.618 14.6924 62.869 15.118C63.1199 15.5435 63.0108 16.0564 62.6289 16.351L49.3926 27.0448H49.3708Z" fill="#16110D"/>
<path d="M49.349 27.2631L48.2032 25.8445L48.3232 25.7463L56.9547 18.7735L46.4682 23.6948L45.6934 22.0362L61.5704 14.5833C62.1051 14.3541 62.6944 14.5287 62.989 15.0198C63.2727 15.5108 63.1636 16.111 62.7053 16.4602L49.349 27.2522V27.2631ZM48.6397 25.8882L49.3926 26.8266L62.5089 16.231C62.8362 15.98 62.9235 15.5436 62.7162 15.1944C62.5089 14.8343 62.0833 14.7033 61.6905 14.8779L46.0972 22.189L46.61 23.2802L58.0459 17.9115L58.1986 18.1297L58.1004 18.2279L48.6288 25.8882H48.6397Z" fill="#89BCFF"/>
<path d="M49.1307 30.0129C47.6467 27.6232 44.253 26.0846 40.4229 26.0846C36.3855 26.0846 32.8499 27.7978 31.5078 30.373L30.3074 29.8056L31.0495 33.3848C31.6933 36.7566 35.7853 39.3973 40.3683 39.3973C44.9514 39.3973 48.9561 36.8657 49.7527 33.603C49.7745 33.5157 49.7854 33.4284 49.8072 33.352L50.5056 29.9911L49.1416 30.0238L49.1307 30.0129Z" fill="#16110D"/>
<path d="M50.1892 28.2779L50.1674 28.2015C50.1455 28.1142 50.1237 28.016 50.091 27.9287L49.5017 25.8445H48.847C47.1011 23.9349 43.9803 22.6691 40.4229 22.6691C36.8656 22.6691 33.7338 23.9349 31.9988 25.8445H31.235L30.6676 28.2452C30.6676 28.2452 30.6457 28.3325 30.6348 28.3652V28.4198C30.5694 28.7253 30.5366 29.0309 30.5366 29.3364C30.5366 33.0247 34.9669 36.0146 40.4338 36.0146C45.9007 36.0146 50.331 33.0247 50.331 29.3364C50.331 28.9763 50.2874 28.6162 50.2001 28.267L50.1892 28.2779Z" fill="#FFD111"/>
<path d="M40.4229 36.2328C34.8469 36.2328 30.3184 33.1447 30.3184 29.3473C30.3184 29.1181 30.3402 28.8781 30.3729 28.638H30.362L30.4493 28.2452L31.0604 25.6372H31.9006C33.7666 23.6512 36.942 22.4618 40.4229 22.4618C43.9039 22.4618 47.0793 23.6512 48.9452 25.6372H49.6654L50.2983 27.8742C50.331 27.9615 50.3529 28.0597 50.3747 28.147L50.4729 28.4853H50.4511C50.5056 28.769 50.5274 29.0527 50.5274 29.3364C50.5274 33.1338 45.9881 36.2219 40.4229 36.2219V36.2328ZM30.8421 28.3979V28.4634C30.7658 28.758 30.733 29.0527 30.733 29.3364C30.733 32.8937 35.076 35.7963 40.412 35.7963C45.748 35.7963 50.091 32.8937 50.091 29.3364C50.091 28.9981 50.0473 28.6598 49.971 28.3216L49.9491 28.2561C49.9273 28.1688 49.9055 28.0815 49.8727 27.9942L49.3162 26.0628H48.7379L48.6724 25.9973C46.8938 24.0549 43.8056 22.8874 40.4011 22.8874C36.9965 22.8874 33.9084 24.044 32.1298 25.9973L32.0643 26.0628H31.3768L30.8203 28.4089L30.8421 28.3979Z" fill="#16110D"/>
<path d="M49.6109 26.7939C49.6109 30.2312 45.4752 33.0246 40.3684 33.0246C35.2615 33.0246 31.1259 30.2312 31.1259 26.7939C31.1259 23.3566 35.2615 20.5631 40.3684 20.5631C45.4752 20.5631 49.6109 23.3566 49.6109 26.7939Z" fill="#FFD111"/>
<path d="M40.3683 33.2429C35.1524 33.2429 30.9076 30.3512 30.9076 26.7939C30.9076 23.2365 35.1524 20.3448 40.3683 20.3448C45.5843 20.3448 49.8182 23.2365 49.8182 26.7939C49.8182 30.3512 45.5734 33.2429 40.3683 33.2429ZM40.3683 20.7813C35.3925 20.7813 31.3441 23.4766 31.3441 26.8048C31.3441 30.133 35.3925 32.8282 40.3683 32.8282C45.3442 32.8282 49.3926 30.133 49.3926 26.8048C49.3926 23.4766 45.3442 20.7813 40.3683 20.7813Z" fill="#16110D"/>
<path d="M40.4229 19.1555C35.9599 19.1555 32.4898 22.5491 32.4898 25.4735C32.4898 28.398 36.0472 30.8968 40.4229 30.8968C44.7986 30.8968 48.356 28.4634 48.356 25.4735C48.356 22.4836 44.8859 19.1555 40.4229 19.1555Z" fill="#16110D"/>
<path d="M47.0356 23.8258C47.0356 26.281 44.0784 28.2779 40.4338 28.2779C36.7892 28.2779 33.832 26.281 33.832 23.8258C33.832 21.3706 36.7892 19.3737 40.4338 19.3737C44.0784 19.3737 47.0356 21.3706 47.0356 23.8258Z" fill="#89BCFF"/>
<path d="M46.9702 25.1244C46.9702 25.1244 44.5368 28.278 40.4229 28.278C36.0799 28.278 33.8211 24.9825 33.8211 24.9825C33.8211 22.931 36.7237 20.8469 40.3684 20.8469C44.013 20.8469 46.9702 22.6692 46.9702 25.1244Z" fill="#C4D5E9"/>
<path d="M40.4229 28.4853C36.6583 28.4853 33.6029 26.3901 33.6029 23.8149C33.6029 21.2396 36.6583 19.1445 40.4229 19.1445C44.1876 19.1445 47.243 21.2396 47.243 23.8149C47.243 26.3901 44.1876 28.4853 40.4229 28.4853ZM40.4229 19.581C36.8983 19.581 34.0285 21.4797 34.0285 23.8258C34.0285 26.1719 36.8983 28.0706 40.4229 28.0706C43.9475 28.0706 46.8174 26.1719 46.8174 23.8258C46.8174 21.4797 43.9475 19.581 40.4229 19.581Z" fill="#16110D"/>
<path d="M62.6507 48.5961C62.4325 48.5961 62.2252 48.5306 62.0397 48.3888L47.1775 37.073C46.8392 36.822 46.7846 36.3419 47.0356 36.0145C47.2866 35.6762 47.7667 35.6217 48.0941 35.8727L57.5985 43.0964L47.2538 32.479C46.9592 32.1735 46.9701 31.6933 47.2757 31.4096C47.5812 31.115 48.0504 31.1259 48.345 31.4314L63.3382 46.8392C63.7092 47.2212 63.7747 47.8322 63.4364 48.236C63.24 48.476 62.9563 48.5961 62.6616 48.5961H62.6507Z" fill="#16110D"/>
<path d="M62.6507 48.7598C62.3997 48.7598 62.1488 48.6725 61.9414 48.5197L47.0792 37.2148C46.8828 37.0621 46.7628 36.8547 46.7301 36.6147C46.6973 36.3746 46.7628 36.1345 46.9047 35.9381C47.0574 35.7417 47.2647 35.6217 47.5048 35.5889C47.7449 35.5562 47.9849 35.6217 48.1813 35.7635L56.0162 41.7215L47.1229 32.599C46.9483 32.4244 46.861 32.1953 46.861 31.9443C46.861 31.7042 46.9592 31.4751 47.1447 31.3005C47.5048 30.9513 48.0831 30.9622 48.4323 31.3223L63.4255 46.7301C63.8619 47.1775 63.9056 47.8868 63.5346 48.3342C63.3054 48.607 62.989 48.7598 62.6398 48.7598H62.6507ZM47.6357 35.8836C47.6357 35.8836 47.5812 35.8836 47.5485 35.8836C47.3848 35.9054 47.2429 35.9927 47.1447 36.1127C47.0465 36.2328 47.0028 36.3964 47.0247 36.5601C47.0465 36.7238 47.1338 36.8656 47.2538 36.9639L62.116 48.2687C62.4652 48.5415 62.9999 48.4761 63.2836 48.1378C63.5564 47.8104 63.5237 47.2866 63.1963 46.9484L48.2032 31.5406C47.974 31.3005 47.5921 31.3005 47.352 31.5296C47.232 31.6388 47.1665 31.7916 47.1665 31.9552C47.1665 32.1189 47.2211 32.2717 47.3411 32.3808L57.6857 42.9982L57.4784 43.2274L47.974 36.0036C47.8649 35.9272 47.7449 35.8836 47.6139 35.8836H47.6357Z" fill="#89BCFF"/>
<path d="M17.5731 48.5961C17.2894 48.5961 16.9947 48.4761 16.7983 48.2251C16.4601 47.8213 16.5364 47.1994 16.9075 46.8284L32.1734 31.4096C32.4681 31.115 32.9482 31.115 33.2428 31.4096C33.5374 31.7043 33.5374 32.1844 33.2428 32.479L22.669 43.1619L32.479 35.8617C32.8172 35.6108 33.2865 35.6762 33.5374 36.0145C33.7884 36.3528 33.7229 36.822 33.3846 37.073L18.1842 48.3888C17.9987 48.5306 17.7914 48.5961 17.5731 48.5961V48.5961Z" fill="#16110D"/>
<path d="M17.5731 48.7598C17.2239 48.7598 16.9075 48.607 16.6783 48.3342C16.2964 47.8759 16.3509 47.1775 16.7983 46.7301L32.0643 31.3114C32.2389 31.1368 32.468 31.0386 32.7081 31.0386C32.9482 31.0386 33.1773 31.1368 33.3519 31.3005C33.5265 31.4751 33.6247 31.7043 33.6247 31.9443C33.6247 32.1844 33.5265 32.4135 33.3628 32.5881L24.2295 41.8088L32.3807 35.7417C32.7845 35.4471 33.3519 35.5235 33.6574 35.9272C33.7993 36.1236 33.8648 36.3637 33.832 36.6037C33.7993 36.8438 33.6683 37.0621 33.4719 37.2039L18.2715 48.5197C18.0641 48.6725 17.8241 48.7598 17.5731 48.7598V48.7598ZM32.7081 31.3551C32.5553 31.3551 32.4025 31.4096 32.2825 31.5297L17.0166 46.9484C16.6892 47.2866 16.6456 47.8104 16.9184 48.1378C17.2021 48.487 17.7368 48.5415 18.0969 48.2796L33.2974 36.9639C33.4283 36.8657 33.5156 36.7238 33.5374 36.571C33.5593 36.4073 33.5156 36.2546 33.4283 36.1237C33.2319 35.8618 32.8499 35.8072 32.5881 36.0036L22.7781 43.3038L22.5708 43.0746L33.1446 32.3917C33.3737 32.1517 33.3737 31.7697 33.1446 31.5406C33.0245 31.4205 32.8718 31.366 32.719 31.366L32.7081 31.3551Z" fill="#89BCFF"/>
<path d="M38.3715 35.0543L36.2545 34.5305C35.8726 34.4323 35.6434 34.0504 35.7307 33.6685C35.8289 33.2865 36.2109 33.0574 36.5928 33.1447L38.7097 33.6685C39.0917 33.7667 39.3208 34.1486 39.2335 34.5305C39.1353 34.9124 38.7534 35.1416 38.3715 35.0543Z" fill="#C4D5E9"/>
<path d="M38.5897 32.4026L37.3021 32.1517C36.9747 32.0862 36.7674 31.7806 36.8219 31.4533C36.8874 31.1259 37.193 30.9186 37.5203 30.9732L38.8079 31.2241C39.1353 31.2896 39.3426 31.5952 39.2881 31.9225C39.2226 32.2499 38.917 32.4572 38.5897 32.4026Z" fill="#C4D5E9"/>
<path d="M38.7752 38.0005L37.2148 37.8368C36.8219 37.8041 36.5273 37.444 36.571 37.0512C36.6037 36.6583 36.9529 36.3637 37.3566 36.4074L38.9171 36.571C39.3099 36.6038 39.6045 36.9639 39.5609 37.3567C39.5281 37.7495 39.168 38.0442 38.7752 38.0005Z" fill="#89BCFF"/>
<path d="M39.4517 29.26C39.4517 29.6637 39.1244 29.9911 38.7207 29.9911C38.3169 29.9911 37.9895 29.6637 37.9895 29.26C37.9895 28.8562 38.3169 28.5289 38.7207 28.5289C39.1244 28.5289 39.4517 28.8562 39.4517 29.26Z" fill="#89BCFF"/>
<path d="M40.6084 26.6739C40.7393 26.7502 40.7393 26.8812 40.6084 26.9576C40.4775 27.0339 40.2592 27.0339 40.1283 26.9576C39.9973 26.8812 39.9973 26.7502 40.1283 26.6739C40.2592 26.5975 40.4775 26.5975 40.6084 26.6739Z" fill="#16110D"/>
<path d="M41.8742 25.9427C42.0052 26.0191 42.0052 26.1501 41.8742 26.2264C41.7433 26.3028 41.525 26.3028 41.3941 26.2264C41.2631 26.1501 41.2631 26.0191 41.3941 25.9427C41.525 25.8663 41.7433 25.8663 41.8742 25.9427Z" fill="#16110D"/>
<path d="M43.14 25.2116C43.271 25.288 43.271 25.419 43.14 25.4953C43.0091 25.5717 42.7908 25.5717 42.6599 25.4953C42.5289 25.419 42.5289 25.288 42.6599 25.2116C42.7908 25.1353 43.0091 25.1353 43.14 25.2116Z" fill="#16110D"/>
<path d="M44.4058 24.4806C44.5368 24.557 44.5368 24.6879 44.4058 24.7643C44.2749 24.8407 44.0566 24.8407 43.9257 24.7643C43.7947 24.6879 43.7947 24.557 43.9257 24.4806C44.0566 24.4042 44.2749 24.4042 44.4058 24.4806Z" fill="#16110D"/>
<path d="M39.3426 25.9427C39.4736 26.0191 39.4736 26.1501 39.3426 26.2264C39.2117 26.3028 38.9934 26.3028 38.8625 26.2264C38.7315 26.1501 38.7315 26.0191 38.8625 25.9427C38.9934 25.8663 39.2117 25.8663 39.3426 25.9427Z" fill="#16110D"/>
<path d="M40.6084 25.2116C40.7393 25.288 40.7393 25.419 40.6084 25.4953C40.4775 25.5717 40.2592 25.5717 40.1283 25.4953C39.9973 25.419 39.9973 25.288 40.1283 25.2116C40.2592 25.1353 40.4775 25.1353 40.6084 25.2116Z" fill="#16110D"/>
<path d="M41.8742 24.4806C42.0052 24.557 42.0052 24.6879 41.8742 24.7643C41.7433 24.8407 41.525 24.8407 41.3941 24.7643C41.2631 24.6879 41.2631 24.557 41.3941 24.4806C41.525 24.4042 41.7433 24.4042 41.8742 24.4806Z" fill="#16110D"/>
<path d="M43.14 23.7494C43.271 23.8258 43.271 23.9568 43.14 24.0332C43.0091 24.1095 42.7908 24.1095 42.6599 24.0332C42.5289 23.9568 42.5289 23.8258 42.6599 23.7494C42.7908 23.673 43.0091 23.673 43.14 23.7494Z" fill="#16110D"/>
<path d="M38.0768 25.2116C38.2078 25.288 38.2078 25.419 38.0768 25.4953C37.9459 25.5717 37.7277 25.5717 37.5967 25.4953C37.4658 25.419 37.4658 25.288 37.5967 25.2116C37.7277 25.1353 37.9459 25.1353 38.0768 25.2116Z" fill="#16110D"/>
<path d="M39.3426 24.4806C39.4736 24.557 39.4736 24.6879 39.3426 24.7643C39.2117 24.8407 38.9934 24.8407 38.8625 24.7643C38.7315 24.6879 38.7315 24.557 38.8625 24.4806C38.9934 24.4042 39.2117 24.4042 39.3426 24.4806Z" fill="#16110D"/>
<path d="M40.6084 23.7494C40.7393 23.8258 40.7393 23.9568 40.6084 24.0332C40.4775 24.1095 40.2592 24.1095 40.1283 24.0332C39.9973 23.9568 39.9973 23.8258 40.1283 23.7494C40.2592 23.673 40.4775 23.673 40.6084 23.7494Z" fill="#16110D"/>
<path d="M41.8742 23.0183C42.0052 23.0947 42.0052 23.2257 41.8742 23.3021C41.7433 23.3785 41.525 23.3785 41.3941 23.3021C41.2631 23.2257 41.2631 23.0947 41.3941 23.0183C41.525 22.942 41.7433 22.942 41.8742 23.0183Z" fill="#16110D"/>
<path d="M36.8219 24.4806C36.9529 24.557 36.9529 24.6879 36.8219 24.7643C36.691 24.8407 36.4727 24.8407 36.3418 24.7643C36.2109 24.6879 36.2109 24.557 36.3418 24.4806C36.4727 24.4042 36.691 24.4042 36.8219 24.4806Z" fill="#16110D"/>
<path d="M38.0768 23.7494C38.2078 23.8258 38.2078 23.9568 38.0768 24.0332C37.9459 24.1095 37.7277 24.1095 37.5967 24.0332C37.4658 23.9568 37.4658 23.8258 37.5967 23.7494C37.7277 23.673 37.9459 23.673 38.0768 23.7494Z" fill="#16110D"/>
<path d="M39.1026 23.3566C39.2894 23.3566 39.4408 23.2687 39.4408 23.1602C39.4408 23.0517 39.2894 22.9637 39.1026 22.9637C38.9157 22.9637 38.7643 23.0517 38.7643 23.1602C38.7643 23.2687 38.9157 23.3566 39.1026 23.3566Z" fill="#16110D"/>
<path d="M40.6084 22.2872C40.7393 22.3636 40.7393 22.4945 40.6084 22.5709C40.4775 22.6473 40.2592 22.6473 40.1283 22.5709C39.9973 22.4945 39.9973 22.3636 40.1283 22.2872C40.2592 22.2108 40.4775 22.2108 40.6084 22.2872Z" fill="#16110D"/>
<path d="M19.5591 52.0443L20.0719 45.8572H13.0664L13.5793 52.0443C13.5793 52.0443 13.5793 52.077 13.5793 52.0879C13.5793 52.1425 13.6011 52.1971 13.6011 52.2517V52.3826H13.623C13.8412 53.3538 15.0742 54.1067 16.5692 54.1067C18.0641 54.1067 19.3081 53.3538 19.5155 52.3826V52.2517C19.5373 52.1971 19.5482 52.1425 19.5482 52.0879C19.5482 52.077 19.5482 52.0552 19.5482 52.0443H19.5591Z" fill="#89BCFF"/>
<path d="M20.312 45.6498H13.0882C12.9573 45.6498 12.8482 45.759 12.8591 45.8899L13.372 52.0225V52.0879C13.372 52.0879 13.3719 52.1862 13.3938 52.2735L13.4592 52.6008C13.7975 53.6047 15.0633 54.3249 16.5692 54.3249C18.075 54.3249 19.3518 53.6047 19.6791 52.6008L19.7555 52.2407C19.7555 52.2407 19.7773 52.1534 19.7773 52.0879V52.0334L20.3011 45.6498H20.312ZM19.3518 52.0334V52.0989C19.3518 52.0989 19.3518 52.1316 19.3518 52.1643C19.3518 52.1862 19.3518 52.2189 19.3408 52.2516V52.3499C19.2426 52.7209 18.9807 53.0591 18.6097 53.321L19.0135 47.5158L17.8022 48.2251H16.591V53.8993C15.227 53.8993 14.0376 53.2337 13.8521 52.3389V52.2298C13.8521 52.2298 13.8303 52.1752 13.8194 52.1534C13.8194 52.1316 13.8194 52.1098 13.8194 52.1098V52.0552L13.3283 46.0754H19.8646L19.3736 52.0225L19.3518 52.0334Z" fill="#16110D"/>
<path d="M20.0719 45.8572C20.0719 47.1666 18.5006 48.2142 16.5692 48.2142C14.6378 48.2142 13.0664 47.1557 13.0664 45.8572C13.0664 44.5586 14.6378 43.0855 16.5692 43.0855C18.5006 43.0855 20.0719 44.5477 20.0719 45.8572Z" fill="#89BCFF"/>
<path d="M16.5801 48.4324C14.5286 48.4324 12.87 47.2757 12.87 45.8572C12.87 44.4386 14.4959 42.8782 16.5801 42.8782C18.6643 42.8782 20.2902 44.4823 20.2902 45.8572C20.2902 47.2321 18.6207 48.4324 16.5801 48.4324ZM16.5801 43.3038C14.7578 43.3038 13.2956 44.7005 13.2956 45.8572C13.2956 47.0139 14.7687 48.0068 16.5801 48.0068C18.3915 48.0068 19.8646 47.0466 19.8646 45.8572C19.8646 44.6678 18.4024 43.3038 16.5801 43.3038Z" fill="#16110D"/>
<path d="M19.57 45.1151C19.57 46.2281 18.2278 47.1338 16.5692 47.1338C14.9106 47.1338 13.5684 46.2281 13.5684 45.1151C13.5684 44.0021 14.9106 43.0964 16.5692 43.0964C18.2278 43.0964 19.57 44.0021 19.57 45.1151Z" fill="#C4D5E9"/>
<path d="M16.5801 47.3412C14.8124 47.3412 13.372 46.3373 13.372 45.1042C13.372 43.8711 14.8124 42.8672 16.5801 42.8672C18.3479 42.8672 19.7883 43.8711 19.7883 45.1042C19.7883 46.3373 18.3479 47.3412 16.5801 47.3412ZM16.5801 43.3037C15.0415 43.3037 13.7975 44.1112 13.7975 45.1151C13.7975 46.119 15.0415 46.9265 16.5801 46.9265C18.1187 46.9265 19.3627 46.119 19.3627 45.1151C19.3627 44.1112 18.1187 43.3037 16.5801 43.3037Z" fill="#16110D"/>
<path d="M17.3003 43.1183C17.0384 43.0419 16.8747 43.2929 16.7438 43.4784C16.6892 43.5548 16.6019 43.6966 16.5801 43.7075C16.5365 43.6857 16.4383 43.5548 16.3837 43.4784C16.2528 43.282 16.0782 43.0528 15.8272 43.1183C15.0852 43.3147 14.605 44.4714 14.605 44.9078C14.605 45.5844 15.4671 46.1082 16.5583 46.1082C17.6495 46.1082 18.5115 45.5844 18.5115 44.9078C18.5115 44.4714 17.9878 43.3038 17.2894 43.1183H17.3003Z" fill="#16110D"/>
<path d="M8.36334 36.571C8.13418 36.3636 7.66497 36.3309 7.17393 36.4837C6.21367 36.7892 4.55502 37.4876 2.75453 39.0153C1.05225 40.4666 0.604886 41.6342 0.495766 42.2671C0.441206 42.5835 0.703091 42.8018 1.13957 42.8345L15.6526 43.8166C16.0127 43.8384 16.3946 43.511 16.1982 43.3365L8.35241 36.5601L8.36334 36.571Z" fill="#C4D5E9"/>
<path d="M15.8381 43.8821C15.7726 43.8821 15.6963 43.8821 15.6308 43.8603L1.56515 40.1501C1.25961 40.0738 1.03046 39.9101 0.921344 39.7028C0.84496 39.5391 0.83406 39.3645 0.899532 39.1899C1.16142 38.4806 1.89253 37.4003 3.83487 36.3091C5.86451 35.1634 7.61043 34.7705 8.73437 34.6287C9.32362 34.5632 9.8365 34.705 10.0766 35.0106L16.5037 43.1401C16.6019 43.2601 16.6129 43.4238 16.5147 43.5656C16.3946 43.7511 16.1218 43.8712 15.8599 43.8712L15.8381 43.8821ZM8.98536 35.0433C8.90897 35.0433 8.83257 35.0433 8.75618 35.0542C7.87231 35.1634 6.09365 35.5125 4.02036 36.6801C2.09984 37.7713 1.47784 38.8189 1.28143 39.3427C1.2596 39.4081 1.2596 39.4518 1.28143 39.5063C1.33599 39.6046 1.46694 39.6919 1.66336 39.7355L15.729 43.4456C15.8708 43.4783 16.0345 43.4238 16.1 43.3801L9.70552 35.2943C9.60732 35.1634 9.34544 35.0542 8.97444 35.0542L8.98536 35.0433Z" fill="#16110D"/>
<path d="M24.7314 51.215C24.9605 51.4223 25.4297 51.455 25.9099 51.3132C26.8701 51.0186 28.5397 50.3202 30.3511 48.8034C32.0752 47.363 32.5335 46.1845 32.6535 45.5516C32.7081 45.2352 32.4571 45.0169 32.0206 44.9842L17.584 43.893C17.2239 43.8712 16.842 44.1985 17.0275 44.3622L24.7314 51.2259V51.215Z" fill="#C4D5E9"/>
<path d="M24.1094 53.1683C23.6402 53.1683 23.2473 53.0155 23.04 52.7536L16.7656 44.5696C16.6674 44.4386 16.6674 44.2749 16.7656 44.144C16.9183 43.9148 17.3221 43.7839 17.6386 43.8712L31.6169 47.6686C31.9224 47.7559 32.1516 47.9086 32.2498 48.116C32.3262 48.2797 32.3371 48.4542 32.2716 48.6288C31.9988 49.3381 31.2568 50.4075 29.3035 51.4987C27.263 52.6336 25.5061 53.0264 24.3931 53.1464C24.3058 53.1464 24.2185 53.1573 24.1312 53.1573L24.1094 53.1683ZM23.3783 52.5026C23.4874 52.6554 23.8366 52.7863 24.3276 52.7317C25.4079 52.6117 27.0993 52.2298 29.0853 51.1277C31.0276 50.0474 31.6605 48.9998 31.8679 48.4761C31.8897 48.4106 31.8897 48.356 31.8679 48.3124C31.8133 48.2142 31.6823 48.1269 31.4968 48.0832L17.5185 44.2858C17.3767 44.2422 17.213 44.3077 17.1475 44.3513L23.3892 52.4917L23.3783 52.5026Z" fill="#16110D"/>
<path d="M17.7913 43.893C17.7913 44.275 17.2458 44.5805 16.5801 44.5805C15.9145 44.5805 15.3689 44.275 15.3689 43.893C15.3689 43.5111 15.9145 43.2056 16.5801 43.2056C17.2458 43.2056 17.7913 43.5111 17.7913 43.893Z" fill="#C4D5E9"/>
<path d="M16.5801 44.7878C15.7835 44.7878 15.1506 44.395 15.1506 43.893C15.1506 43.3911 15.7726 42.9982 16.5801 42.9982C17.3876 42.9982 18.0096 43.3911 18.0096 43.893C18.0096 44.395 17.3876 44.7878 16.5801 44.7878ZM16.5801 43.4129C16.0127 43.4129 15.5871 43.6639 15.5871 43.8821C15.5871 44.1003 16.0127 44.3513 16.5801 44.3513C17.1475 44.3513 17.5731 44.1003 17.5731 43.8821C17.5731 43.6639 17.1475 43.4129 16.5801 43.4129Z" fill="#16110D"/>
<path d="M66.9174 52.2517L67.4302 46.0645H60.4247L60.9375 52.2517C60.9375 52.2517 60.9375 52.2844 60.9375 52.2953C60.9375 52.3498 60.9594 52.4044 60.9594 52.459V52.5899H60.9812C61.1994 53.5611 62.4325 54.314 63.9274 54.314C65.4224 54.314 66.6664 53.5611 66.8737 52.5899V52.459C66.8955 52.4044 66.9064 52.3498 66.9064 52.2953C66.9064 52.2735 66.9064 52.2626 66.9064 52.2517H66.9174Z" fill="#89BCFF"/>
<path d="M67.6594 45.8572H60.4356C60.3046 45.8572 60.1955 45.9663 60.2064 46.0972L60.7193 52.2298V52.2953C60.7193 52.2953 60.7193 52.3935 60.7411 52.4808L60.8066 52.8081C61.1449 53.8121 62.4107 54.5323 63.9165 54.5323C65.4224 54.5323 66.6991 53.8121 67.0264 52.8081L67.1028 52.4481C67.1028 52.4481 67.1247 52.3607 67.1247 52.2953V52.2407L67.6484 45.8572H67.6594ZM66.6991 52.2407V52.3062C66.6991 52.3062 66.6991 52.3389 66.6991 52.3717C66.6991 52.3935 66.6991 52.4262 66.6882 52.459V52.5572C66.59 52.9282 66.3281 53.2665 65.9571 53.5283L66.3608 47.7231L65.1496 48.4324H63.9383V54.1067C62.5743 54.1067 61.3849 53.4411 61.1994 52.5463V52.4371C61.1994 52.4371 61.1776 52.3826 61.1667 52.3607C61.1667 52.3389 61.1667 52.3171 61.1667 52.3171V52.2625L60.6757 46.2828H67.212L66.7209 52.2407H66.6991Z" fill="#16110D"/>
<path d="M67.4302 46.0754C67.4302 47.3849 65.8589 48.4324 63.9274 48.4324C61.996 48.4324 60.4247 47.374 60.4247 46.0754C60.4247 44.7769 61.996 43.3038 63.9274 43.3038C65.8589 43.3038 67.4302 44.766 67.4302 46.0754Z" fill="#89BCFF"/>
<path d="M63.9274 48.6507C61.876 48.6507 60.2064 47.494 60.2064 46.0754C60.2064 44.6569 61.8323 43.0964 63.9274 43.0964C66.0225 43.0964 67.6376 44.7005 67.6376 46.0754C67.6376 47.4504 65.968 48.6507 63.9274 48.6507ZM63.9274 43.522C62.1051 43.522 60.6429 44.9188 60.6429 46.0754C60.6429 47.2321 62.116 48.2251 63.9274 48.2251C65.7388 48.2251 67.212 47.2648 67.212 46.0754C67.212 44.886 65.7497 43.522 63.9274 43.522Z" fill="#16110D"/>
<path d="M66.9174 45.3225C66.9174 46.4355 65.5752 47.3412 63.9166 47.3412C62.2579 47.3412 60.9157 46.4355 60.9157 45.3225C60.9157 44.2095 62.2579 43.3038 63.9166 43.3038C65.5752 43.3038 66.9174 44.2095 66.9174 45.3225Z" fill="#C4D5E9"/>
<path d="M63.9274 47.5595C62.1597 47.5595 60.7193 46.5556 60.7193 45.3225C60.7193 44.0894 62.1597 43.0855 63.9274 43.0855C65.6952 43.0855 67.1356 44.0894 67.1356 45.3225C67.1356 46.5556 65.6952 47.5595 63.9274 47.5595ZM63.9274 43.522C62.3888 43.522 61.1449 44.3295 61.1449 45.3334C61.1449 46.3373 62.3888 47.1448 63.9274 47.1448C65.466 47.1448 66.71 46.3373 66.71 45.3334C66.71 44.3295 65.466 43.522 63.9274 43.522Z" fill="#16110D"/>
<path d="M64.6586 43.3365C64.3967 43.2601 64.233 43.5111 64.102 43.6966C64.0475 43.773 63.9602 43.9149 63.9384 43.9258C63.8947 43.904 63.7965 43.773 63.742 43.6966C63.611 43.5002 63.4364 43.271 63.1854 43.3365C62.4434 43.5329 61.9633 44.6896 61.9633 45.1261C61.9633 45.8027 62.8253 46.3264 63.9166 46.3264C65.0078 46.3264 65.8698 45.8027 65.8698 45.1261C65.8698 44.6896 65.346 43.522 64.6476 43.3365H64.6586Z" fill="#16110D"/>
<path d="M48.2141 44.8969C47.7776 44.9187 47.5157 45.137 47.5594 45.4425C47.6467 46.0427 48.0832 47.1775 49.8073 48.7379C51.455 50.2111 53.19 50.9531 54.1939 51.2914C54.685 51.455 55.1651 51.4332 55.4051 51.2259L63.3055 44.5368C63.5019 44.3731 63.12 44.0348 62.7599 44.0567L48.2141 44.9078V44.8969Z" fill="#C4D5E9"/>
<path d="M56.0708 53.2773C55.9726 53.2773 55.8744 53.2773 55.7653 53.2555C54.7941 53.1355 52.8627 52.7536 50.8876 51.586C48.8798 50.3966 48.1705 49.3599 47.9413 48.6943C47.8758 48.5197 47.8868 48.356 47.9741 48.1924C48.0832 47.985 48.3123 47.8323 48.6179 47.745L62.7053 44.0349C63.0218 43.9476 63.4146 44.0785 63.5674 44.3077C63.6547 44.4495 63.6547 44.6132 63.5564 44.7332L57.1402 52.8518C56.9328 53.1137 56.54 53.2555 56.0708 53.2555V53.2773ZM62.9126 44.4495C62.9126 44.4495 62.8472 44.4495 62.8144 44.4604L48.727 48.1705C48.5415 48.2251 48.3996 48.3015 48.3451 48.3997C48.3232 48.4433 48.3232 48.4979 48.3451 48.5524C48.5197 49.0435 49.1089 50.0365 51.1167 51.215C53.0263 52.3389 54.8923 52.7099 55.8307 52.819C56.3327 52.8845 56.6928 52.7427 56.8128 52.5899L63.1964 44.515C63.1964 44.515 63.0327 44.4386 62.9236 44.4386L62.9126 44.4495Z" fill="#16110D"/>
<path d="M79.3898 43.3474C79.8263 43.3256 80.0991 43.1182 80.0554 42.8127C79.979 42.2125 79.5644 41.0777 77.8512 39.5173C76.2253 38.0332 74.4903 37.2803 73.4973 36.942C73.0063 36.7784 72.5261 36.8002 72.2861 36.9966L64.2439 43.6093C64.0475 43.773 64.4185 44.1112 64.7786 44.0894L79.4007 43.3474H79.3898Z" fill="#C4D5E9"/>
<path d="M64.604 44.1331C64.3421 44.1331 64.0584 44.0131 63.9383 43.8275C63.8511 43.6857 63.862 43.522 63.9602 43.402L70.5401 35.338C70.7911 35.0324 71.3149 34.8906 71.915 34.9669C72.8862 35.0979 74.8176 35.4798 76.7818 36.6583C78.7678 37.8477 79.4662 38.8953 79.6844 39.5609C79.739 39.7355 79.7281 39.8992 79.6517 40.052C79.5426 40.2593 79.3134 40.4121 78.997 40.4994L64.8113 44.1222C64.7458 44.144 64.6804 44.144 64.604 44.144V44.1331ZM64.3312 43.6311C64.3967 43.6857 64.5603 43.7402 64.7022 43.6966L78.8879 40.0738C79.0843 40.0302 79.2261 39.9428 79.2698 39.8446C79.2916 39.801 79.3025 39.7464 79.2698 39.6919C79.1061 39.2008 78.5277 38.1969 76.5417 37.0184C74.654 35.8836 72.788 35.5126 71.8387 35.3816C71.3367 35.3161 70.9766 35.4471 70.8457 35.5999L64.3094 43.6202L64.3312 43.6311Z" fill="#16110D"/>
<path d="M65.1387 44.1112C65.1387 44.4932 64.5931 44.7987 63.9275 44.7987C63.2618 44.7987 62.7162 44.4932 62.7162 44.1112C62.7162 43.7293 63.2618 43.4238 63.9275 43.4238C64.5931 43.4238 65.1387 43.7293 65.1387 44.1112Z" fill="#C4D5E9"/>
<path d="M63.9275 45.006C63.1309 45.006 62.498 44.6132 62.498 44.1113C62.498 43.6093 63.12 43.2165 63.9275 43.2165C64.735 43.2165 65.3569 43.6093 65.3569 44.1113C65.3569 44.6132 64.735 45.006 63.9275 45.006ZM63.9275 43.6311C63.36 43.6311 62.9345 43.8821 62.9345 44.1004C62.9345 44.3186 63.36 44.5696 63.9275 44.5696C64.4949 44.5696 64.9205 44.3186 64.9205 44.1004C64.9205 43.8821 64.4949 43.6311 63.9275 43.6311Z" fill="#16110D"/>
</svg>
