<svg width="81" height="72" viewBox="0 0 81 72" fill="none" xmlns="http://www.w3.org/2000/svg">
<path d="M25.9634 29.089L24.9031 29.4117C24.5435 29.0521 24.101 28.7109 23.5662 28.3975C20.6619 26.701 16.264 26.5166 13.7378 27.9826L3.46672 33.9479L0.359596 34.8883V37.3593C0.405696 38.4564 1.20787 39.6089 2.75682 40.5125C5.6611 42.209 10.059 42.3934 12.5853 40.9274L24.2669 34.1415C25.3825 33.4869 25.945 32.611 25.9634 31.6982V29.089V29.089Z" fill="#89BCFF"/>
<path d="M8.31642 42.2643C6.31569 42.2643 4.21356 41.7756 2.58163 40.8167C1.17098 39.9869 0.23051 38.9635 0.00923157 37.8479V34.6394L3.31922 33.6344L13.5533 27.6875C16.1626 26.1662 20.7265 26.3506 23.7322 28.1024C24.2116 28.379 24.6358 28.6925 24.9953 29.0244L26.3138 29.1812L26.2861 31.9748C26.1662 32.9429 25.5208 33.8096 24.4329 34.4365L12.7512 41.2224C11.5618 41.9139 9.976 42.255 8.30719 42.255L8.31642 42.2643ZM0.700728 37.2117V37.35C0.746828 38.3734 1.55822 39.4153 2.932 40.2174C5.73486 41.8586 9.98522 42.043 12.4008 40.6323L24.0826 33.8464C25.0599 33.2748 25.5854 32.528 25.6038 31.6982V29.5684L24.7925 29.8173L24.645 29.6698C24.2946 29.3195 23.8705 28.9968 23.3726 28.7109C20.5697 27.0698 16.3193 26.8854 13.9037 28.296L3.55895 34.2982L0.700728 35.1649V37.2209V37.2117Z" fill="#16110D"/>
<path d="M24.2669 31.6798L12.5853 38.4657C10.0682 39.9409 5.67031 39.7565 2.75681 38.0508C-0.147477 36.3543 -0.470193 33.7819 2.04685 32.3067L13.7285 25.5209C16.2456 24.0457 20.6435 24.2301 23.557 25.9358C26.4613 27.6322 26.784 30.2046 24.2669 31.6798Z" fill="#89BCFF"/>
<path d="M23.5662 27.2819C20.6619 25.5854 16.264 25.401 13.7378 26.867L2.05609 33.6529C1.18019 34.16 0.663837 34.8053 0.460999 35.4968C0.719157 36.4096 1.49363 37.3132 2.76599 38.0508C5.67027 39.7472 10.0682 39.9316 12.5945 38.4657L24.2761 31.6798C25.152 31.1727 25.6683 30.5273 25.8712 29.8358C25.613 28.923 24.8385 28.0195 23.5662 27.2819Z" fill="#C4D5E9"/>
<path d="M8.31641 39.8025C6.31568 39.8025 4.21356 39.3139 2.58163 38.355C0.94048 37.3961 0 36.1053 0 34.8053C0 33.7081 0.663864 32.7124 1.87168 32.0117L13.5533 25.2258C16.1626 23.7045 20.7265 23.8889 23.7322 25.6407C25.3734 26.5996 26.3138 27.8904 26.3138 29.1904C26.3138 30.2875 25.6499 31.2833 24.4421 31.984L12.7604 38.7699C11.5711 39.4614 9.98523 39.8025 8.31641 39.8025V39.8025ZM17.9974 24.8754C16.4576 24.8754 15.0009 25.1889 13.9037 25.8251L2.22204 32.611C1.2355 33.1826 0.691496 33.9663 0.691496 34.8053C0.691496 35.8472 1.50289 36.9259 2.92277 37.7465C5.72563 39.3876 9.97599 39.572 12.3916 38.1614L24.0733 31.3755C25.0599 30.8039 25.6038 30.0202 25.6038 29.1811C25.6038 28.1393 24.7925 27.0606 23.3726 26.24C21.8329 25.3364 19.8598 24.8754 17.9881 24.8754H17.9974Z" fill="#16110D"/>
<path d="M21.9251 28.2684C24.0549 29.4946 24.0549 31.4954 21.9251 32.7216C19.7953 33.9479 16.3378 33.9479 14.208 32.7216C12.0782 31.4954 12.0782 29.4946 14.208 28.2684C16.3378 27.0421 19.7953 27.0421 21.9251 28.2684Z" fill="#89BCFF"/>
<path d="M18.0711 32.5188C16.6144 32.5188 15.1484 32.1961 14.042 31.5599C12.8988 30.8961 12.2718 30.0017 12.2718 29.0337C12.2718 28.0656 12.8988 27.162 14.042 26.5074C16.264 25.2258 19.8875 25.2258 22.1095 26.5074C23.2528 27.1712 23.8797 28.0656 23.8797 29.0337C23.8797 30.0017 23.2528 30.9053 22.1095 31.5599C20.9939 32.2053 19.5371 32.528 18.0804 32.528L18.0711 32.5188ZM18.0711 26.2216C16.7343 26.2216 15.4066 26.5166 14.3832 27.0975C13.4612 27.6322 12.9633 28.3145 12.9633 29.0244C12.9633 29.7344 13.4704 30.4166 14.3832 30.9514C16.4116 32.1223 19.7215 32.1223 21.7499 30.9514C22.6719 30.4166 23.1697 29.7344 23.1697 29.0244C23.1697 28.3145 22.6627 27.6322 21.7499 27.0975C20.7357 26.5074 19.3988 26.2216 18.0619 26.2216H18.0711Z" fill="#16110D"/>
<path d="M10.271 39.4614V41.7479L12.2626 41.1025L25.2442 33.5053L26.1201 31.8273L25.862 30.14L13.1569 38.1337L10.271 39.4614Z" fill="#16110D"/>
<path d="M8.17814 39.4614V42.0246L6.49088 41.9231V39.3231L8.17814 39.4614Z" fill="#16110D"/>
<path d="M79.642 15.9229L53.9367 30.767L28.2316 15.9229L53.9367 1.07874L79.642 15.9229Z" fill="#FFD111"/>
<path d="M28.2316 15.9229V21.9527L53.9367 36.7968V30.767L28.2316 15.9229Z" fill="#FFD111"/>
<path d="M79.642 15.9229V21.9527L53.9367 36.7968V30.767L79.642 15.9229Z" fill="#15100C"/>
<path d="M80.02 15.7108L79.6512 15.4987L53.946 0.654602L28.2407 15.4987L27.872 15.7108V22.1648L53.5772 37.0089L53.946 37.2209L54.3148 37.0089L79.8356 22.2754L80.02 22.1648V15.7108V15.7108ZM53.946 1.51206L78.9136 15.9228L67.2873 22.635L53.946 30.3336L28.9784 15.9228L53.946 1.51206ZM28.6095 21.7406V16.5682L53.5772 30.979V36.1514L28.6095 21.7406ZM79.2824 21.7406L54.3148 36.1514V30.979L79.2824 16.5682V21.7406Z" fill="#140F0C"/>
<path d="M53.9367 1.07874L37.7373 10.4278C33.3486 12.9633 29.6883 10.1973 29.6883 10.1973C29.2181 14.9271 34.1231 18.9562 36.1791 20.4222C36.4096 20.6066 36.6586 20.7818 36.926 20.9385L53.9367 30.7578L79.642 15.9136L53.9367 1.06952V1.07874Z" fill="#FFD111"/>
<path d="M37.0642 20.9385L54.0751 30.7578L77.1803 17.4165L54.2595 4.18585L38.06 13.5349C34.4273 15.637 31.2925 14.0973 30.3244 13.5072C31.5876 16.7342 34.7592 19.3066 36.3174 20.413C36.5479 20.5974 36.7969 20.7725 37.0642 20.9293V20.9385Z" fill="#C4D5E9"/>
<path d="M53.9367 31.1911L36.7415 21.2612C36.4742 21.1137 36.216 20.9293 35.9486 20.7172C33.8004 19.1867 28.8308 15.0746 29.3195 10.1696L29.384 9.51498L29.9095 9.91144C30.0571 10.0221 33.4408 12.493 37.5529 10.1143L53.9367 0.654602L79.6236 15.4895C79.9647 15.6831 79.9647 16.1718 79.6236 16.3654L53.9367 31.2003V31.1911ZM30.0294 10.8427C30.0294 15.1023 34.4366 18.7257 36.4004 20.1271C36.6586 20.33 36.889 20.4959 37.1195 20.625L53.946 30.3429L78.9136 15.9321L53.946 1.52128L37.9309 10.7689C34.3997 12.8065 31.2649 11.5434 30.0294 10.8611V10.8427Z" fill="#140F0C"/>
<path d="M56.629 6.78589C55.9928 6.78589 55.3566 6.64759 54.868 6.36177C54.324 6.04829 54.029 5.61495 54.029 5.12629C54.029 4.64686 54.324 4.2043 54.868 3.90004L60.6673 0.553197C61.9489 -0.184399 63.9496 -0.184399 65.222 0.553197C65.9043 0.940435 66.273 1.48441 66.273 2.08371C66.273 2.68301 65.8951 3.21776 65.222 3.61422L61.5248 5.75325L61.156 5.11707L64.8532 2.97804C65.2957 2.71989 65.5354 2.40641 65.5354 2.09293C65.5354 1.77945 65.2957 1.45675 64.8532 1.20781C63.8205 0.608517 62.0687 0.608517 61.0361 1.20781L55.2368 4.55466C54.9417 4.72984 54.7665 4.9419 54.7665 5.14473C54.7665 5.34757 54.9325 5.55963 55.2368 5.73481C55.9928 6.16815 57.2652 6.16815 58.0212 5.73481L63.212 2.73833L63.5808 3.3745L58.39 6.37099C57.8921 6.65681 57.2652 6.79511 56.629 6.79511V6.78589Z" fill="#140F0C"/>
<path d="M53.7524 32.8415L28.0471 18.3385L28.4159 17.9328L54.1211 32.4358L53.7524 32.8415Z" fill="#140F0C"/>
<path d="M53.7524 35.1926L28.0471 20.4222L28.4159 20.0073L54.1211 34.7869L53.7524 35.1926Z" fill="#140F0C"/>
<path d="M54.1211 33.0443V32.3989L79.4668 17.8959L79.4391 18.5413L54.1211 33.0443Z" fill="#FFD111"/>
<path d="M54.1211 35.0174V34.372L79.4668 19.869L79.4391 20.5144L54.1211 35.0174Z" fill="#FFD111"/>
<path d="M54.1211 23.3634C51.3183 23.3634 48.5154 22.7456 46.3764 21.5102C44.2374 20.2747 43.0572 18.6151 43.0572 16.8264C43.0572 15.0377 44.2374 13.3782 46.3764 12.1427C50.6452 9.68095 57.5971 9.68095 61.8659 12.1427C64.0049 13.3782 65.1851 15.0377 65.1851 16.8264C65.1851 18.6151 64.0049 20.2747 61.8659 21.5102C59.7361 22.7456 56.924 23.3634 54.1211 23.3634ZM54.1211 11.0271C51.4473 11.0271 48.7828 11.6171 46.7452 12.7881C44.8459 13.8853 43.804 15.3236 43.804 16.8356C43.804 18.3477 44.8459 19.786 46.7452 20.8832C50.8112 23.2343 57.4219 23.2343 61.4971 20.8832C63.3964 19.786 64.4383 18.3477 64.4383 16.8356C64.4383 15.3236 63.3964 13.8853 61.4971 12.7881C59.4595 11.6171 56.7949 11.0271 54.1211 11.0271Z" fill="#81B5FA"/>
<path d="M53.9183 17.2598L51.5211 12.5299L52.1757 12.1888L54.324 16.4115L58.9985 15.3973L59.1553 16.1165L53.9183 17.2598Z" fill="#81B5FA"/>
<path d="M53.9367 22.3953C51.1339 22.3953 48.331 21.7776 46.192 20.5421C44.053 19.3066 42.8728 17.647 42.8728 15.8583C42.8728 14.0697 44.053 12.4101 46.192 11.1746C50.4608 8.71288 57.4127 8.71288 61.6815 11.1746C63.8205 12.4101 65.0007 14.0697 65.0007 15.8583C65.0007 17.647 63.8205 19.3066 61.6815 20.5421C59.5517 21.7776 56.7396 22.3953 53.9367 22.3953ZM53.9367 10.059C51.2629 10.059 48.5984 10.6491 46.5608 11.82C44.6615 12.9172 43.6104 14.3555 43.6104 15.8676C43.6104 17.3796 44.6522 18.8179 46.5608 19.9151C50.6268 22.2662 57.2375 22.2662 61.3035 19.9151C63.2028 18.8179 64.2447 17.3796 64.2447 15.8676C64.2447 14.3555 63.2028 12.9172 61.3035 11.82C59.2659 10.6491 56.6013 10.059 53.9276 10.059H53.9367Z" fill="#140F0C"/>
<path d="M53.7339 16.2825L51.3367 11.5526L51.9913 11.2207L54.1396 15.4434L58.8141 14.4292L58.9708 15.1484L53.7339 16.2825Z" fill="#140F0C"/>
<path d="M71.9433 45.9984L68.7348 46.2842L44.2374 32.1408C43.2324 31.5599 41.4806 31.6337 40.3189 32.3068L6.46324 51.8531L5.77174 51.9176H2.89512V54.5729C2.86746 54.9694 3.07955 55.3474 3.55898 55.624L30.5919 71.2334C31.5969 71.8142 33.3487 71.7405 34.5104 71.0674L70.9845 50.0091C71.5838 49.6587 71.9065 49.2254 71.9341 48.8013V45.9984H71.9433Z" fill="#73A4F1"/>
<path d="M32.3068 71.9157C31.6153 71.9157 30.9606 71.7774 30.4628 71.4823L3.42986 55.8729C2.9412 55.5871 2.65538 55.1999 2.6185 54.7481V54.7205C2.6185 54.7205 2.6185 54.6559 2.6185 54.619V51.6225H5.78094L6.38948 51.5672L40.1898 32.0486C41.4437 31.3202 43.2969 31.2464 44.3941 31.8826L68.8177 45.9799L72.2476 45.6757V49.0594H72.2014C72.0816 49.5112 71.7128 49.9261 71.1504 50.2488L34.6763 71.3071C33.994 71.7036 33.1365 71.9064 32.3252 71.9064L32.3068 71.9157ZM3.1809 54.3885H3.19936V54.5914C3.16248 54.9694 3.45752 55.2275 3.71568 55.3751L30.7486 70.9845C31.6521 71.51 33.3117 71.4362 34.372 70.8185L70.8461 49.7601C71.3348 49.4743 71.6298 49.1239 71.6483 48.7736V46.3119L68.661 46.5792L44.0806 32.3897C43.177 31.8642 41.5175 31.9379 40.4572 32.5557L6.54621 52.1296L5.79017 52.1942H3.1809V54.3793V54.3885Z" fill="#140F0C"/>
<path d="M30.601 68.4305L3.5682 52.8211C2.56323 52.2403 2.69229 51.2261 3.84479 50.5622L40.3189 29.5039C41.4806 28.8308 43.2324 28.7663 44.2374 29.3379L71.2703 44.9473C72.2753 45.5282 72.1462 46.5423 70.9937 47.2062L34.5195 68.2646C33.3578 68.9376 31.606 69.0021 30.601 68.4305V68.4305Z" fill="#73A4F1"/>
<path d="M40.3189 31.1634L3.84477 52.2218C3.66037 52.3232 3.51285 52.4431 3.38377 52.563C3.43909 52.6091 3.49442 52.6552 3.55896 52.692L30.5919 68.3014C31.5968 68.8823 33.3486 68.8085 34.5103 68.1355L70.9845 47.0771C71.1689 46.9757 71.3164 46.8558 71.4455 46.7359C71.3901 46.6898 71.3348 46.6437 71.2703 46.6069L44.2374 30.9975C43.2324 30.4166 41.4806 30.4904 40.3189 31.1634V31.1634Z" fill="#C4D5E9"/>
<path d="M32.3068 69.1128C31.6153 69.1128 30.9606 68.9745 30.4628 68.6795L3.42986 53.0701C2.90432 52.7658 2.60927 52.3233 2.60927 51.8346C2.60927 51.2722 3.01496 50.7098 3.71567 50.3041L40.1898 29.2457C41.4437 28.5173 43.2969 28.4528 44.3941 29.0798L71.427 44.6891C71.9525 44.9934 72.2476 45.436 72.2476 45.9246C72.2476 46.487 71.8419 47.0494 71.1412 47.4551L34.6671 68.5135C33.9848 68.91 33.1273 69.1128 32.316 69.1128H32.3068ZM42.5316 29.2457C41.8125 29.2457 41.038 29.4209 40.4572 29.7528L3.98303 50.8112C3.46671 51.1062 3.17167 51.4842 3.17167 51.8438C3.17167 52.2034 3.45751 52.4339 3.70644 52.5722L30.7393 68.1816C31.6429 68.7071 33.3025 68.6334 34.3628 68.0156L70.8369 46.9572C71.3532 46.6622 71.6483 46.2842 71.6483 45.9246C71.6483 45.565 71.3624 45.3345 71.1135 45.1962L44.0806 29.5869C43.6749 29.3564 43.1125 29.2365 42.5316 29.2365V29.2457Z" fill="#140F0C"/>
<path d="M59.2751 51.5673L35.2663 37.7005C34.8883 37.4792 34.9345 37.1012 35.3678 36.8522L40.0607 34.1416C40.494 33.8926 41.1579 33.865 41.5359 34.077L65.5447 47.9438C65.9227 48.1651 65.8766 48.5431 65.4433 48.7921L60.7503 51.5027C60.3169 51.7517 59.6531 51.7793 59.2751 51.5673Z" fill="#FFD111"/>
<path d="M59.524 50.6821C59.229 50.6821 58.9524 50.6176 58.7403 50.4977L34.7316 36.6309C34.4827 36.4834 34.3352 36.2621 34.3352 36.0132C34.3352 35.7366 34.5195 35.4692 34.8422 35.2848L39.5352 32.5741C40.0607 32.2699 40.8352 32.2422 41.2962 32.5096L65.3049 46.3764C65.5539 46.5239 65.7014 46.7452 65.7014 46.9941C65.7014 47.2707 65.517 47.5381 65.1943 47.7225L60.5014 50.4332C60.2156 50.5991 59.8652 50.6821 59.524 50.6821ZM40.5033 32.9061C40.2636 32.9061 40.0054 32.9614 39.8118 33.072L35.1188 35.7827C34.9713 35.8657 34.9068 35.9671 34.9068 36.0132C34.9068 36.0501 34.9529 36.0962 35.0174 36.133L59.0262 49.9999C59.312 50.1658 59.8652 50.1382 60.2155 49.9353L64.9085 47.2246C65.056 47.1417 65.1205 47.0402 65.1205 46.9941C65.1205 46.9573 65.0744 46.9112 65.0099 46.8743L41.0012 33.0075C40.8721 32.9337 40.6969 32.8968 40.5125 32.8968L40.5033 32.9061Z" fill="#140F0C"/>
<path d="M32.8876 43.6842L28.4344 41.1118C28.3145 41.0381 28.3237 40.9182 28.4712 40.8352L31.3848 39.148C31.5231 39.065 31.7443 39.0558 31.8642 39.1295L36.3174 41.7019C36.4373 41.7757 36.4281 41.8955 36.2806 41.9785L33.367 43.6658C33.2287 43.7487 33.0075 43.758 32.8876 43.6842Z" fill="#73A4F1"/>
<path d="M32.7032 42.6977C32.5741 42.6977 32.4543 42.67 32.3528 42.6147L27.8996 40.0423C27.7521 39.9593 27.6691 39.821 27.6691 39.6735C27.6691 39.5075 27.7613 39.36 27.9273 39.2678L30.8407 37.5806C31.0712 37.4423 31.394 37.4423 31.606 37.5621L36.0593 40.1345C36.2068 40.2175 36.2898 40.3558 36.2898 40.5033C36.2898 40.6693 36.1975 40.8168 36.0316 40.909L33.1181 42.5962C32.9982 42.67 32.8507 42.7069 32.7032 42.7069V42.6977ZM32.6387 42.1076C32.6387 42.1076 32.7678 42.126 32.8323 42.0891L35.5706 40.5033L31.3294 38.0508C31.3294 38.0508 31.2003 38.0324 31.1358 38.0692L28.3975 39.6551L32.6387 42.1076V42.1076Z" fill="#140F0C"/>
<path d="M39.7288 47.6396L35.2756 45.0672C35.1557 44.9935 35.1649 44.8736 35.3125 44.7906L38.2259 43.1034C38.3642 43.0204 38.5855 43.0112 38.7054 43.0849L43.1586 45.6573C43.2785 45.7311 43.2693 45.8509 43.1217 45.9339L40.2083 47.6211C40.07 47.7041 39.8487 47.7133 39.7288 47.6396Z" fill="#73A4F1"/>
<path d="M39.5444 46.653C39.4153 46.653 39.2954 46.6254 39.194 46.5701L34.7408 43.9977C34.5933 43.9147 34.5103 43.7764 34.5103 43.6289C34.5103 43.4629 34.6025 43.3154 34.7685 43.2232L37.682 41.536C37.9125 41.4069 38.2352 41.3884 38.4472 41.5175L42.9005 44.0899C43.048 44.1729 43.131 44.3112 43.131 44.4587C43.131 44.6247 43.0387 44.7722 42.8728 44.8644L39.9593 46.5516C39.8394 46.6254 39.6919 46.6623 39.5444 46.6623V46.653ZM39.4798 46.063C39.4798 46.063 39.6089 46.0814 39.6735 46.0445L42.4118 44.4587L38.1706 42.0062C38.1706 42.0062 38.0415 41.9877 37.977 42.0246L35.2387 43.6105L39.4798 46.063Z" fill="#140F0C"/>
<path d="M46.4778 51.5304L42.0246 48.958C41.9047 48.8843 41.914 48.7644 42.0615 48.6814L44.975 46.9942C45.1133 46.9112 45.3346 46.902 45.4544 46.9757L49.9076 49.5481C50.0275 49.6219 50.0183 49.7417 49.8707 49.8247L46.9573 51.5119C46.819 51.5949 46.5977 51.6042 46.4778 51.5304Z" fill="#73A4F1"/>
<path d="M46.2934 50.5438C46.1643 50.5438 46.0444 50.5162 45.943 50.4609L41.4898 47.8885C41.3423 47.8055 41.2593 47.6672 41.2593 47.5197C41.2593 47.3537 41.3515 47.2062 41.5175 47.114L44.4309 45.4268C44.6614 45.2977 44.9842 45.2885 45.1962 45.4083L49.6495 47.9807C49.797 48.0637 49.88 48.202 49.88 48.3495C49.88 48.5155 49.7877 48.663 49.6218 48.7552L46.7083 50.4424C46.5884 50.5162 46.4409 50.5531 46.2934 50.5531V50.5438ZM46.2288 49.9538C46.2288 49.9538 46.3579 49.9722 46.4225 49.9353L49.1608 48.3495L44.9196 45.897C44.9196 45.897 44.7905 45.8786 44.726 45.9154L41.9877 47.5013L46.2288 49.9538Z" fill="#140F0C"/>
<path d="M53.3651 55.5134L48.9119 52.9411C48.7921 52.8673 48.8013 52.7474 48.9488 52.6645L51.8623 50.9772C52.0006 50.8942 52.2219 50.885 52.3417 50.9588L56.795 53.5311C56.9148 53.6049 56.9056 53.7247 56.7581 53.8077L53.8446 55.495C53.7063 55.578 53.485 55.5872 53.3651 55.5134V55.5134Z" fill="#73A4F1"/>
<path d="M53.1807 54.5269C53.0517 54.5269 52.9318 54.4992 52.8304 54.4439L48.3771 51.8715C48.2296 51.7886 48.1466 51.6503 48.1466 51.5027C48.1466 51.3368 48.2388 51.1893 48.4048 51.0971L51.3183 49.4098C51.5488 49.2807 51.8715 49.2715 52.0836 49.3914L56.5368 51.9637C56.6843 52.0467 56.7673 52.185 56.7673 52.3325C56.7673 52.4985 56.6751 52.646 56.5091 52.7382L53.5956 54.4255C53.4757 54.4992 53.3283 54.5361 53.1807 54.5361V54.5269ZM53.1162 53.9368C53.1162 53.9368 53.2452 53.9552 53.3098 53.9184L56.0481 52.3325L51.8069 49.88C51.8069 49.88 51.6779 49.8616 51.6133 49.8985L48.875 51.4843L53.1162 53.9368V53.9368Z" fill="#140F0C"/>
<path d="M27.8443 46.5977L23.3911 44.0253C23.2712 43.9515 23.2804 43.8317 23.428 43.7487L26.3414 42.0614C26.4797 41.9785 26.701 41.9692 26.8209 42.043L31.2741 44.6154C31.394 44.6891 31.3847 44.809 31.2372 44.892L28.3238 46.5792C28.1855 46.6622 27.9642 46.6714 27.8443 46.5977Z" fill="#73A4F1"/>
<path d="M27.6507 45.6111C27.5216 45.6111 27.4017 45.5834 27.3003 45.5281L22.8471 42.9558C22.6996 42.8728 22.6166 42.7345 22.6166 42.587C22.6166 42.421 22.7087 42.2735 22.8747 42.1813L25.7882 40.494C26.0187 40.365 26.3415 40.3557 26.5535 40.4756L31.0067 43.048C31.1542 43.1309 31.2372 43.2692 31.2372 43.4168C31.2372 43.5827 31.145 43.7302 30.9791 43.8224L28.0655 45.5097C27.9457 45.5834 27.7982 45.6203 27.6507 45.6203V45.6111ZM27.5861 45.021C27.5861 45.021 27.7152 45.0395 27.7797 45.0026L30.5181 43.4168L26.2769 40.9643C26.2769 40.9643 26.1478 40.9458 26.0833 40.9827L23.3449 42.5685L27.5861 45.021Z" fill="#140F0C"/>
<path d="M34.6856 50.553L30.2323 47.9807C30.1124 47.9069 30.1216 47.7871 30.2692 47.7041L33.1827 46.0168C33.321 45.9338 33.5422 45.9246 33.6621 45.9984L38.1153 48.5707C38.2352 48.6445 38.226 48.7644 38.0785 48.8473L35.165 50.5346C35.0267 50.6176 34.8054 50.6268 34.6856 50.553Z" fill="#73A4F1"/>
<path d="M34.4919 49.5665C34.3628 49.5665 34.2429 49.5388 34.1415 49.4835L29.6883 46.9111C29.5407 46.8282 29.4578 46.6899 29.4578 46.5423C29.4578 46.3764 29.55 46.2289 29.7159 46.1367L32.6294 44.4494C32.8599 44.3203 33.1826 44.3111 33.3947 44.431L37.848 47.0033C37.9955 47.0863 38.0785 47.2246 38.0785 47.3721C38.0785 47.5381 37.9862 47.6856 37.8203 47.7778L34.9068 49.4651C34.7869 49.5388 34.6394 49.5757 34.4919 49.5757V49.5665ZM34.4273 48.9764C34.4273 48.9764 34.5564 48.9949 34.621 48.958L37.3593 47.3721L33.1181 44.9196C33.1181 44.9196 32.989 44.9012 32.9245 44.9381L30.1862 46.5239L34.4273 48.9764V48.9764Z" fill="#140F0C"/>
<path d="M41.4345 54.4438L36.9813 51.8715C36.8614 51.7977 36.8706 51.6779 37.0182 51.5949L39.9316 49.9076C40.0699 49.8246 40.2912 49.8154 40.4111 49.8892L44.8644 52.4616C44.9842 52.5353 44.975 52.6552 44.8275 52.7382L41.914 54.4254C41.7757 54.5084 41.5544 54.5176 41.4345 54.4438V54.4438Z" fill="#73A4F1"/>
<path d="M41.2409 53.4573C41.1118 53.4573 40.9919 53.4296 40.8905 53.3743L36.4373 50.8019C36.2898 50.719 36.2068 50.5807 36.2068 50.4332C36.2068 50.2672 36.299 50.1197 36.465 50.0275L39.3784 48.3402C39.6089 48.2019 39.9317 48.2019 40.1437 48.3218L44.597 50.8942C44.7445 50.9771 44.8275 51.1154 44.8275 51.2629C44.8275 51.4289 44.7352 51.5764 44.5693 51.6686L41.6558 53.3559C41.5359 53.4296 41.3884 53.4665 41.2409 53.4665V53.4573ZM41.1763 52.8672C41.1763 52.8672 41.3054 52.8857 41.37 52.8488L44.1083 51.2629L39.8671 48.8104C39.8671 48.8104 39.738 48.792 39.6735 48.8289L36.9351 50.4147L41.1763 52.8672V52.8672Z" fill="#140F0C"/>
<path d="M48.3218 58.4269L43.8686 55.8545C43.7487 55.7807 43.758 55.6609 43.9055 55.5779L46.819 53.8907C46.9573 53.8077 47.1786 53.7985 47.2984 53.8722L51.7516 56.4446C51.8715 56.5183 51.8623 56.6382 51.7148 56.7212L48.8013 58.4084C48.663 58.4914 48.4417 58.5006 48.3218 58.4269Z" fill="#73A4F1"/>
<path d="M48.1374 57.4403C48.0083 57.4403 47.8885 57.4127 47.787 57.3574L43.3338 54.785C43.1863 54.702 43.1033 54.5637 43.1033 54.4162C43.1033 54.2502 43.1955 54.1027 43.3615 54.0105L46.275 52.3233C46.5055 52.185 46.8282 52.185 47.0402 52.3048L51.4935 54.8772C51.641 54.9602 51.724 55.0985 51.724 55.246C51.724 55.4119 51.6317 55.5595 51.4658 55.6517L48.5523 57.3389C48.4324 57.4127 48.2849 57.4496 48.1374 57.4496V57.4403ZM48.0729 56.8503C48.0729 56.8503 48.202 56.8687 48.2665 56.8318L51.0048 55.246L46.7636 52.7935C46.7636 52.7935 46.6345 52.775 46.57 52.8119L43.8317 54.3977L48.0729 56.8503Z" fill="#140F0C"/>
<path d="M22.7457 49.4835L18.2925 46.9111C18.1726 46.8374 18.1818 46.7175 18.3293 46.6345L21.2428 44.9473C21.3811 44.8643 21.6024 44.8551 21.7222 44.9289L26.1755 47.5012C26.2954 47.575 26.2862 47.6948 26.1386 47.7778L23.2251 49.4651C23.0868 49.5481 22.8656 49.5573 22.7457 49.4835Z" fill="#73A4F1"/>
<path d="M22.5613 48.497C22.4322 48.497 22.3123 48.4693 22.2109 48.414L17.7576 45.8416C17.6101 45.7586 17.5271 45.6203 17.5271 45.4728C17.5271 45.3069 17.6194 45.1594 17.7853 45.0672L20.6988 43.3799C20.9293 43.2508 21.252 43.2416 21.4641 43.3615L25.9173 45.9338C26.0649 46.0168 26.1478 46.1551 26.1478 46.3026C26.1478 46.4686 26.0556 46.6161 25.8896 46.7083L22.9762 48.3956C22.8563 48.4693 22.7088 48.5062 22.5613 48.5062V48.497ZM22.4967 47.9069C22.4967 47.9069 22.6258 47.9253 22.6904 47.8885L25.4286 46.3026L21.1875 43.8501C21.1875 43.8501 21.0584 43.8317 20.9939 43.8686L18.2556 45.4544L22.4967 47.9069Z" fill="#140F0C"/>
<path d="M29.5869 53.4389L25.1336 50.8665C25.0138 50.7928 25.023 50.6729 25.1705 50.5899L28.084 48.9027C28.2223 48.8197 28.4436 48.8105 28.5635 48.8842L33.0167 51.4566C33.1365 51.5304 33.1273 51.6502 32.9798 51.7332L30.0663 53.4205C29.928 53.5034 29.7067 53.5127 29.5869 53.4389Z" fill="#73A4F1"/>
<path d="M29.4025 52.4524C29.2734 52.4524 29.1535 52.4247 29.0521 52.3694L24.5989 49.797C24.4514 49.714 24.3684 49.5757 24.3684 49.4282C24.3684 49.2622 24.4606 49.1147 24.6265 49.0225L27.5401 47.3353C27.7706 47.197 28.0932 47.197 28.3053 47.3168L32.7585 49.8892C32.906 49.9722 32.989 50.1105 32.989 50.258C32.989 50.424 32.8968 50.5715 32.7308 50.6637L29.8174 52.3509C29.6975 52.4247 29.55 52.4616 29.4025 52.4616V52.4524ZM29.3379 51.8623C29.3379 51.8623 29.467 51.8807 29.5315 51.8438L32.2698 50.258L28.0287 47.8055C28.0287 47.8055 27.8996 47.7871 27.835 47.8239L25.0967 49.4098L29.3379 51.8623V51.8623Z" fill="#140F0C"/>
<path d="M31.228 60.2063L26.8024 57.6524C26.6733 57.5786 26.6733 57.4496 26.8024 57.3758L34.8515 52.7843C34.9806 52.7105 35.1926 52.7105 35.3309 52.7843L39.7565 55.3382C39.8856 55.412 39.8856 55.541 39.7565 55.6148L31.7074 60.2063C31.5784 60.2801 31.3663 60.2801 31.228 60.2063Z" fill="#73A4F1"/>
<path d="M31.062 59.229C30.9237 59.229 30.7854 59.2013 30.6748 59.1368L26.2492 56.5829C26.0925 56.4907 26.0095 56.3524 26.0095 56.1956C26.0095 56.0389 26.1017 55.9006 26.2492 55.8084L34.2982 51.2169C34.5195 51.0878 34.8422 51.0878 35.0635 51.2169L39.4891 53.7708C39.6458 53.863 39.7288 54.0013 39.7288 54.158C39.7288 54.3148 39.6366 54.4531 39.4891 54.5453L31.4401 59.1368C31.3294 59.2013 31.1911 59.229 31.062 59.229V59.229ZM30.9698 58.6297C30.9698 58.6297 31.1174 58.6574 31.1635 58.6297L39.0188 54.1488L34.7869 51.7055C34.7869 51.7055 34.6394 51.6779 34.5933 51.7055L26.7379 56.1864L30.9606 58.6297H30.9698Z" fill="#140F0C"/>
<path d="M43.2232 61.3127L38.77 58.7404C38.6501 58.6666 38.6593 58.5468 38.8068 58.4638L41.7203 56.7765C41.8586 56.6935 42.0799 56.6843 42.1998 56.7581L46.653 59.3305C46.7729 59.4042 46.7636 59.5241 46.6161 59.607L43.7026 61.2943C43.5643 61.3773 43.343 61.3865 43.2232 61.3127Z" fill="#73A4F1"/>
<path d="M43.0388 60.3262C42.9097 60.3262 42.7898 60.2985 42.6884 60.2432L38.2352 57.6709C38.0876 57.5879 38.0047 57.4496 38.0047 57.3021C38.0047 57.1361 38.0968 56.9886 38.2628 56.8964L41.1763 55.2091C41.4068 55.08 41.7295 55.0708 41.9416 55.1907L46.3948 57.763C46.5423 57.846 46.6253 57.9843 46.6253 58.1318C46.6253 58.2978 46.5331 58.4453 46.3672 58.5375L43.4536 60.2248C43.3338 60.2985 43.1863 60.3354 43.0388 60.3354V60.3262ZM42.9742 59.7361C42.9742 59.7361 43.1033 59.7546 43.1678 59.7177L45.9062 58.1318L41.665 55.6793C41.665 55.6793 41.5359 55.6609 41.4714 55.6978L38.733 57.2836L42.9742 59.7361Z" fill="#140F0C"/>
<path d="M17.7023 52.397L13.2491 49.8247C13.1293 49.7509 13.1385 49.631 13.286 49.5481L16.1995 47.8608C16.3378 47.7778 16.5591 47.7686 16.6789 47.8424L21.1322 50.4147C21.2521 50.4885 21.2428 50.6084 21.0953 50.6913L18.1818 52.3786C18.0435 52.4616 17.8222 52.4708 17.7023 52.397Z" fill="#73A4F1"/>
<path d="M17.5087 51.4105C17.3797 51.4105 17.2598 51.3828 17.1584 51.3275L12.7051 48.7551C12.5576 48.6722 12.4746 48.5339 12.4746 48.3863C12.4746 48.2204 12.5668 48.0729 12.7328 47.9807L15.6463 46.2934C15.8768 46.1551 16.1995 46.1551 16.4116 46.275L20.8648 48.8473C21.0123 48.9303 21.0953 49.0686 21.0953 49.2161C21.0953 49.3821 21.0031 49.5296 20.8371 49.6218L17.9236 51.3091C17.8037 51.3828 17.6563 51.4197 17.5087 51.4197V51.4105ZM17.4442 50.8204C17.4442 50.8204 17.5732 50.8388 17.6378 50.802L20.3761 49.2161L16.1349 46.7636C16.1349 46.7636 16.0059 46.7452 15.9413 46.7821L13.203 48.3679L17.4442 50.8204Z" fill="#140F0C"/>
<path d="M24.5436 56.3524L20.0903 53.78C19.9705 53.7063 19.9797 53.5864 20.1272 53.5035L23.0407 51.8162C23.179 51.7332 23.4003 51.724 23.5201 51.7978L27.9734 54.3701C28.0932 54.4439 28.084 54.5637 27.9365 54.6467L25.023 56.334C24.8847 56.417 24.6634 56.4262 24.5436 56.3524Z" fill="#73A4F1"/>
<path d="M24.3499 55.3659C24.2208 55.3659 24.101 55.3382 23.9996 55.2829L19.5463 52.7105C19.3988 52.6275 19.3158 52.4892 19.3158 52.3417C19.3158 52.1758 19.408 52.0282 19.574 51.936L22.4875 50.2488C22.718 50.1197 23.0407 50.1105 23.2527 50.2304L27.706 52.8027C27.8535 52.8857 27.9365 53.024 27.9365 53.1715C27.9365 53.3375 27.8443 53.485 27.6783 53.5772L24.7648 55.2644C24.645 55.3382 24.4974 55.3751 24.3499 55.3751V55.3659ZM24.2854 54.7758C24.2854 54.7758 24.4145 54.7942 24.479 54.7574L27.2173 53.1715L22.9762 50.719C22.9762 50.719 22.8471 50.7006 22.7825 50.7375L20.0442 52.3233L24.2854 54.7758V54.7758Z" fill="#140F0C"/>
<path d="M38.1799 64.2263L33.7266 61.6539C33.6068 61.5801 33.616 61.4603 33.7635 61.3773L36.677 59.69C36.8153 59.6071 37.0366 59.5978 37.1565 59.6716L41.6097 62.244C41.7295 62.3177 41.7203 62.4376 41.5728 62.5206L38.6593 64.2078C38.521 64.2908 38.2997 64.3 38.1799 64.2263Z" fill="#73A4F1"/>
<path d="M37.9954 63.2397C37.8664 63.2397 37.7465 63.212 37.6451 63.1567L33.1918 60.5844C33.0443 60.5014 32.9613 60.3631 32.9613 60.2156C32.9613 60.0496 33.0536 59.9021 33.2195 59.8099L36.133 58.1226C36.3635 57.9936 36.6862 57.9843 36.8983 58.1042L41.3515 60.6766C41.499 60.7595 41.582 60.8978 41.582 61.0454C41.582 61.2113 41.4898 61.3588 41.3238 61.451L38.4104 63.1383C38.2905 63.212 38.143 63.2489 37.9954 63.2489V63.2397ZM37.9309 62.6496C37.9309 62.6496 38.06 62.6681 38.1245 62.6312L40.8628 61.0454L36.6217 58.5929C36.6217 58.5929 36.4926 58.5744 36.428 58.6113L33.6897 60.1971L37.9309 62.6496Z" fill="#140F0C"/>
<path d="M12.6038 55.2829L8.1505 52.7105C8.03064 52.6368 8.03984 52.5169 8.18736 52.4339L11.1009 50.7467C11.2392 50.6637 11.4604 50.6545 11.5803 50.7282L16.0335 53.3006C16.1534 53.3744 16.1442 53.4942 15.9967 53.5772L13.0832 55.2645C12.9449 55.3474 12.7236 55.3567 12.6038 55.2829V55.2829Z" fill="#73A4F1"/>
<path d="M12.4193 54.2963C12.2902 54.2963 12.1704 54.2687 12.0689 54.2134L7.61569 51.641C7.46817 51.558 7.38519 51.4197 7.38519 51.2722C7.38519 51.1062 7.47742 50.9587 7.64338 50.8665L10.5569 49.1793C10.7874 49.041 11.1101 49.0318 11.3221 49.1608L15.7754 51.7332C15.9229 51.8162 16.0059 51.9545 16.0059 52.102C16.0059 52.268 15.9137 52.4155 15.7477 52.5077L12.8342 54.1949C12.7144 54.2687 12.5668 54.3056 12.4193 54.3056V54.2963ZM12.3548 53.7063C12.3548 53.7063 12.4839 53.7247 12.5484 53.6878L15.2867 52.102L11.0455 49.6495C11.0455 49.6495 10.9164 49.6311 10.8519 49.6679L8.1136 51.2538L12.3548 53.7063V53.7063Z" fill="#140F0C"/>
<path d="M19.4449 59.2383L14.9917 56.6659C14.8718 56.5922 14.8811 56.4723 15.0286 56.3893L17.9421 54.7021C18.0804 54.6191 18.3017 54.6099 18.4215 54.6836L22.8747 57.256C22.9946 57.3297 22.9854 57.4496 22.8378 57.5326L19.9244 59.2198C19.7861 59.3028 19.5648 59.312 19.4449 59.2383Z" fill="#73A4F1"/>
<path d="M19.2605 58.2517C19.1314 58.2517 19.0116 58.2241 18.9101 58.1688L14.4569 55.5964C14.3094 55.5134 14.2264 55.3751 14.2264 55.2276C14.2264 55.0616 14.3186 54.9141 14.4846 54.8219L17.3981 53.1347C17.6286 52.9964 17.9513 52.9964 18.1633 53.1162L22.6166 55.6886C22.7641 55.7716 22.8471 55.9099 22.8471 56.0574C22.8471 56.2233 22.7548 56.3709 22.5889 56.4631L19.6754 58.1503C19.5555 58.2241 19.408 58.2609 19.2605 58.2609V58.2517ZM19.196 57.6617C19.196 57.6617 19.3251 57.6801 19.3896 57.6432L22.1279 56.0574L17.8867 53.6049C17.8867 53.6049 17.7576 53.5864 17.6931 53.6233L14.9548 55.2091L19.196 57.6617Z" fill="#140F0C"/>
<path d="M26.1939 63.1291L21.7407 60.5567C21.6208 60.483 21.6301 60.3631 21.7776 60.2801L24.6911 58.5929C24.8294 58.5099 25.0507 58.5007 25.1705 58.5744L29.6237 61.1468C29.7436 61.2206 29.7344 61.3404 29.5869 61.4234L26.6734 63.1106C26.5351 63.1936 26.3138 63.2028 26.1939 63.1291Z" fill="#73A4F1"/>
<path d="M26.0095 62.1425C25.8804 62.1425 25.7606 62.1149 25.6591 62.0596L21.2059 59.4872C21.0584 59.4042 20.9754 59.2659 20.9754 59.1184C20.9754 58.9524 21.0676 58.8049 21.2336 58.7127L24.1471 57.0255C24.3776 56.8964 24.7003 56.8872 24.9123 57.007L29.3656 59.5794C29.5131 59.6624 29.5961 59.8007 29.5961 59.9482C29.5961 60.1142 29.5039 60.2617 29.3379 60.3539L26.4244 62.0411C26.3046 62.1149 26.157 62.1518 26.0095 62.1518V62.1425ZM25.945 61.5525C25.945 61.5525 26.0741 61.5709 26.1386 61.534L28.8769 59.9482L24.6357 57.4957C24.6357 57.4957 24.5066 57.4772 24.4421 57.5141L21.7038 59.1L25.945 61.5525Z" fill="#140F0C"/>
<path d="M33.0812 67.1121L28.628 64.5397C28.5082 64.466 28.5174 64.3461 28.6649 64.2632L31.5784 62.5759C31.7167 62.4929 31.938 62.4837 32.0578 62.5575L36.5111 65.1298C36.6309 65.2036 36.6217 65.3234 36.4742 65.4064L33.5607 67.0937C33.4224 67.1767 33.2011 67.1859 33.0812 67.1121Z" fill="#73A4F1"/>
<path d="M32.8968 66.1256C32.7678 66.1256 32.6479 66.0979 32.5465 66.0426L28.0932 63.4702C27.9457 63.3872 27.8627 63.2489 27.8627 63.1014C27.8627 62.9355 27.9549 62.7879 28.1209 62.6957L31.0344 61.0085C31.2649 60.8702 31.5876 60.8702 31.7997 60.9901L36.2529 63.5624C36.4004 63.6454 36.4834 63.7837 36.4834 63.9312C36.4834 64.0972 36.3912 64.2447 36.2252 64.3369L33.3117 66.0241C33.1918 66.0979 33.0444 66.1348 32.8968 66.1348V66.1256ZM32.8323 65.5355C32.8323 65.5355 32.9613 65.5539 33.0259 65.5171L35.7642 63.9312L31.523 61.4787C31.523 61.4787 31.394 61.4603 31.3294 61.4972L28.5911 63.083L32.8323 65.5355Z" fill="#140F0C"/>
<path d="M39.8579 37.9032L38.1522 36.9167C37.9309 36.7876 37.9586 36.5663 38.2167 36.4188L41.2132 34.6855C41.4714 34.5379 41.8494 34.5195 42.0706 34.6486L43.7764 35.6351C43.9977 35.7642 43.97 35.9855 43.7118 36.133L40.7153 37.8663C40.4572 38.0139 40.0792 38.0323 39.8579 37.9032Z" fill="#73A4F1"/>
<path d="M40.2359 38.2813C40.0423 38.2813 39.8579 38.2444 39.7196 38.1522L38.0139 37.1656C37.8295 37.055 37.7189 36.889 37.7189 36.7047C37.7189 36.5018 37.8479 36.3082 38.0692 36.1699L41.0657 34.4365C41.4068 34.2337 41.9047 34.2245 42.209 34.3997L43.9146 35.3862C44.099 35.4968 44.2097 35.6628 44.2097 35.8472C44.2097 36.05 44.0806 36.2437 43.8593 36.382L40.8628 38.1153C40.6784 38.2259 40.4572 38.272 40.2359 38.272V38.2813ZM38.3366 36.6954L40.0054 37.6635C40.1252 37.7281 40.4018 37.7281 40.577 37.6266L43.5735 35.8933L43.6012 35.8749L41.9324 34.916C41.8125 34.8514 41.5359 34.8514 41.3607 34.9529L38.3643 36.6862L38.3366 36.7047V36.6954Z" fill="#140F0C"/>
<path d="M43.4813 39.9962L41.7756 39.0096C41.5543 38.8806 41.582 38.6593 41.8401 38.5118L44.8366 36.7784C45.0948 36.6309 45.4728 36.6125 45.6941 36.7415L47.3998 37.7281C47.6211 37.8571 47.5934 38.0784 47.3353 38.2259L44.3388 39.9593C44.0806 40.1068 43.7026 40.1253 43.4813 39.9962Z" fill="#73A4F1"/>
<path d="M43.8593 40.3742C43.6657 40.3742 43.4813 40.3373 43.343 40.2451L41.6373 39.2586C41.4529 39.148 41.3423 38.982 41.3423 38.7976C41.3423 38.5948 41.4714 38.4011 41.6927 38.2721L44.6891 36.5387C45.0303 36.3359 45.5282 36.3267 45.8324 36.5018L47.5381 37.4884C47.7225 37.599 47.8331 37.765 47.8331 37.9494C47.8331 38.1522 47.704 38.3458 47.4828 38.4841L44.4863 40.2175C44.3019 40.3281 44.0806 40.3742 43.8593 40.3742V40.3742ZM41.96 38.7884L43.6288 39.7473C43.7487 39.8118 44.0253 39.8118 44.2005 39.7104L47.1969 37.977L47.2246 37.9586L45.5558 36.9997C45.436 36.9352 45.1594 36.9352 44.9842 37.0366L41.9877 38.7699L41.96 38.7884Z" fill="#140F0C"/>
<path d="M47.114 42.0891L45.4083 41.1025C45.187 40.9735 45.2146 40.7522 45.4728 40.6047L48.4693 38.8713C48.7274 38.7238 49.1055 38.7053 49.3267 38.8344L51.0325 39.821C51.2537 39.95 51.2261 40.1713 50.9679 40.3188L47.9714 42.0522C47.7133 42.1997 47.3353 42.2182 47.114 42.0891Z" fill="#73A4F1"/>
<path d="M47.4828 42.4671C47.2891 42.4671 47.1047 42.4302 46.9664 42.3473L45.2608 41.3607C45.0764 41.2501 44.9657 41.0841 44.9657 40.8997C44.9657 40.6969 45.0948 40.5033 45.3161 40.365L48.3126 38.6316C48.6537 38.4288 49.1516 38.4196 49.4558 38.5947L51.1616 39.5813C51.346 39.6919 51.4566 39.8579 51.4566 40.0423C51.4566 40.2451 51.3275 40.4387 51.1062 40.577L48.1098 42.3104C47.9254 42.421 47.6948 42.4671 47.4828 42.4671V42.4671ZM47.2523 41.8402C47.3721 41.9047 47.6488 41.9047 47.8239 41.8033L50.8204 40.0699L50.8481 40.0515L49.1793 39.0926C49.0594 39.0281 48.7828 39.0281 48.6076 39.1295L45.6111 40.8628L45.5834 40.8813L47.2523 41.8402Z" fill="#140F0C"/>
<path d="M50.7374 44.182L49.0318 43.1955C48.8105 43.0664 48.8381 42.8451 49.0963 42.6976L52.0927 40.9643C52.3509 40.8167 52.729 40.7983 52.9502 40.9274L54.6559 41.9139C54.8772 42.043 54.8495 42.2643 54.5914 42.4118L51.5949 44.1452C51.3367 44.2927 50.9587 44.3111 50.7374 44.182Z" fill="#73A4F1"/>
<path d="M51.1154 44.5601C50.9218 44.5601 50.7374 44.5232 50.5991 44.4402L48.8934 43.4537C48.709 43.343 48.5984 43.1771 48.5984 42.9927C48.5984 42.7898 48.7275 42.5962 48.9488 42.4579L51.9452 40.7246C52.2956 40.5217 52.7842 40.5125 53.0885 40.6877L54.7942 41.6742C54.9786 41.7849 55.0892 41.9508 55.0892 42.1352C55.0892 42.3381 54.9602 42.5317 54.7389 42.67L51.7424 44.4033C51.558 44.514 51.3367 44.5601 51.1154 44.5601V44.5601ZM50.8849 43.9331C51.0048 43.9977 51.2814 43.9977 51.4566 43.8962L54.453 42.1629L54.4807 42.1444L52.8119 41.1856C52.6921 41.121 52.4155 41.121 52.2403 41.2224L49.2438 42.9558L49.2161 42.9742L50.8849 43.9331Z" fill="#140F0C"/>
<path d="M54.3609 46.2749L52.6552 45.2884C52.4339 45.1593 52.4616 44.938 52.7197 44.7905L55.7162 43.0572C55.9744 42.9096 56.3524 42.8912 56.5737 43.0203L58.2793 44.0068C58.5006 44.1359 58.4729 44.3572 58.2148 44.5047L55.2183 46.238C54.9601 46.3856 54.5821 46.404 54.3609 46.2749Z" fill="#73A4F1"/>
<path d="M54.7389 46.653C54.5453 46.653 54.3608 46.6161 54.2225 46.5331L52.5169 45.5466C52.3325 45.4359 52.2218 45.27 52.2218 45.0856C52.2218 44.8827 52.3509 44.6891 52.5722 44.5508L55.5687 42.8175C55.9098 42.6146 56.4077 42.6054 56.7119 42.7806L58.4177 43.7671C58.6021 43.8778 58.7127 44.0437 58.7127 44.2281C58.7127 44.431 58.5836 44.6246 58.3624 44.7537L55.3659 46.487C55.1815 46.5976 54.951 46.6437 54.7389 46.6437V46.653ZM54.5084 46.026C54.6283 46.0905 54.9049 46.0905 55.0801 45.9891L58.0765 44.2558L58.1042 44.2373L56.4354 43.2785C56.3155 43.2139 56.0481 43.2139 55.8637 43.3153L52.8672 45.0487L52.8396 45.0671L54.4992 46.0352L54.5084 46.026Z" fill="#140F0C"/>
<path d="M57.9843 48.3679L56.2786 47.3813C56.0573 47.2523 56.085 47.031 56.3432 46.8835L59.3396 45.1501C59.5978 45.0026 59.9758 44.9842 60.1971 45.1132L61.9028 46.0998C62.124 46.2288 62.0964 46.4501 61.8382 46.5976L58.8417 48.331C58.5836 48.4785 58.2056 48.497 57.9843 48.3679Z" fill="#73A4F1"/>
<path d="M58.3623 48.7459C58.1687 48.7459 57.9843 48.709 57.846 48.6168L56.1403 47.6303C55.9559 47.5197 55.8453 47.3537 55.8453 47.1693C55.8453 46.9665 55.9743 46.7728 56.1956 46.6345L59.1921 44.9012C59.5332 44.6984 60.0311 44.6891 60.3354 44.8643L62.0411 45.8509C62.2255 45.9615 62.3361 46.1275 62.3361 46.3119C62.3361 46.5147 62.2071 46.7083 61.9858 46.8466L58.9893 48.58C58.8049 48.6906 58.5836 48.7367 58.3623 48.7367V48.7459ZM58.1318 48.119C58.2517 48.1835 58.5283 48.1835 58.7035 48.0821L61.7 46.3487L61.7276 46.3303L60.0588 45.3714C59.9389 45.3069 59.6623 45.3069 59.4872 45.4083L56.4907 47.1416L56.463 47.1601L58.1318 48.119Z" fill="#140F0C"/>
<path d="M32.5741 68.8177V71.6206L34.5195 71.0674L71.6575 49.6495L71.9341 48.8012L72.1185 46.4501L34.8976 68.0801L33.4223 68.6887L32.5741 68.8177Z" fill="#130E0C"/>
<path d="M53.9367 57.3942L53.3835 57.7077V59.8467L53.9367 59.524V57.3942Z" fill="#81B5FA"/>
<path d="M63.1475 52.0651L62.5943 52.3878V54.5269L63.1475 54.2042V52.0651Z" fill="#81B5FA"/>
</svg>
