<svg width="49" height="80" viewBox="0 0 49 80" fill="none" xmlns="http://www.w3.org/2000/svg">
<path d="M15.6155 21.2158C16.54 18.2244 17.1711 15.8909 17.1711 15.8909C17.1711 15.8909 14.2378 14.7154 12.7978 14.382C11.4022 13.9259 9.64222 14.3645 7.85555 15.7944C4.27333 18.6542 1.97999 24.1282 2.65555 28.3917C2.94888 30.2251 3.82888 31.2164 4.87777 32.0849C4.87777 32.0849 7.79333 34.5324 10.3889 34.2341C11.3489 34.1201 12.3355 30.8479 13.6778 27.1284C14.7089 25.2774 15.4022 23.2071 15.6244 21.2246L15.6155 21.2158Z" fill="#73A4F1"/>
<path d="M15.5711 21.2158C15.8111 20.4438 16.0245 19.7157 16.22 19.0578C15.3667 18.7244 13.3667 17.9612 12.2556 17.7068C10.86 17.2506 9.10001 17.6893 7.31335 19.1192C5.05557 20.9175 3.31334 23.7598 2.50446 26.6723C2.50446 27.26 2.53112 27.839 2.62001 28.3917C2.91334 30.2251 3.79334 31.2164 4.84223 32.0849C4.84223 32.0849 7.75779 34.5324 10.3533 34.2341C11.3133 34.1201 12.3 30.8479 13.6422 27.1284C14.6733 25.2774 15.3667 23.2071 15.5889 21.2246L15.5711 21.2158Z" fill="#FCECCC"/>
<path d="M9.92667 34.8043C7.36667 34.8043 4.81556 32.7516 4.52222 32.5059C3.46445 31.6287 2.44222 30.5321 2.11333 28.4794C1.40222 24.0318 3.72222 18.3998 7.50889 15.3733C9.39333 13.8733 11.3311 13.3381 12.9756 13.8645C14.3889 14.1891 17.26 15.3383 17.3844 15.3909L17.8378 15.5751L17.7133 16.04C17.7133 16.04 17.0733 18.3823 16.1667 21.3298C15.9356 23.33 15.2244 25.4792 14.1667 27.3828L13.6422 28.9005C12.2822 32.7779 11.58 34.6376 10.46 34.7692C10.2822 34.7868 10.1133 34.7956 9.93556 34.7956L9.92667 34.8043ZM11.6778 14.768C10.5933 14.768 9.40222 15.2681 8.20222 16.2243C4.75334 18.9788 2.55778 24.2862 3.20667 28.3039C3.46445 29.9093 4.20222 30.8041 5.23333 31.6638C6.19333 32.4621 8.46889 33.9008 10.3178 33.6814C10.8422 33.4797 11.8022 30.7427 12.5756 28.5408C12.7622 28.0232 12.9489 27.4793 13.1444 26.9354C14.1844 25.0581 14.8511 23.0317 15.0644 21.1544L15.0822 21.0579C15.7489 18.8823 16.2733 17.0489 16.5044 16.2243C15.6333 15.8821 13.7222 15.1628 12.6733 14.9172C12.3533 14.8119 12.0244 14.7593 11.6778 14.7593V14.768Z" fill="#15100C"/>
<path d="M20.3267 19.6806C19.98 17.4963 18.9222 15.9699 17.3489 15.3733C15.6689 14.7417 13.66 15.2505 11.7044 16.812C7.98888 19.7771 5.53555 25.795 6.24666 30.2163C6.59332 32.4007 7.6511 33.9271 9.22444 34.5236C9.69555 34.699 10.1933 34.7868 10.7089 34.7868C12.0244 34.7868 13.4644 34.2078 14.8778 33.0761C18.5933 30.111 21.0467 24.0931 20.3355 19.6718L20.3267 19.6806Z" fill="#FFD111"/>
<path d="M16.6022 22.3036C16.9489 24.4792 15.7489 27.4267 13.9178 28.8917C12.0867 30.3567 10.3178 29.7777 9.9711 27.6022C9.62444 25.4266 10.8244 22.479 12.6555 21.014C14.4867 19.549 16.2555 20.128 16.6022 22.3036V22.3036Z" fill="#15100C"/>
<path d="M11.9711 30.2514C11.6778 30.2514 11.3844 30.1988 11.1178 30.0935C10.22 29.7514 9.62444 28.9005 9.42889 27.6811C9.04667 25.295 10.3178 22.1808 12.3178 20.5842C13.4022 19.7245 14.5222 19.4438 15.4733 19.8034C16.3711 20.1456 16.9667 20.9965 17.1622 22.2159C17.5444 24.602 16.2733 27.7162 14.2733 29.3128C13.5 29.9268 12.7089 30.2427 11.9711 30.2427V30.2514ZM14.62 20.7596C14.14 20.7596 13.5711 20.9965 13.0111 21.4439C11.3489 22.7685 10.2111 25.5582 10.5222 27.5232C10.6556 28.3303 11.0022 28.8829 11.5178 29.0759C12.0778 29.2865 12.8244 29.0671 13.5711 28.4706C15.2333 27.146 16.3711 24.3563 16.06 22.3913C15.9267 21.5842 15.58 21.0316 15.0733 20.8386C14.9311 20.786 14.78 20.7596 14.62 20.7596V20.7596Z" fill="#73A4F1"/>
<path d="M48.2556 72.7452C46.7267 66.3237 43.3933 56.3758 36.9222 52.5861C35.6778 51.858 34.0156 50.8754 33.0733 50.3228L32.6556 46.0594C33.0111 45.8839 33.3933 45.6822 33.7578 45.4453L33.8022 45.419L33.9444 45.3225C34.8511 44.726 35.5356 43.9978 35.8022 42.7346L36.3178 40.5064L38.0956 32.6989C38.1578 32.4533 38.22 32.2077 38.2644 31.9445L38.3089 31.7427H38.3C38.3978 31.1462 38.46 30.5234 38.4689 29.8567C38.5489 23.0054 33.7756 14.6189 27.8022 11.1187C25.0644 9.52211 22.8244 9.13612 20.8956 9.94318L20.6289 10.0309L20.4867 10.1099C20.2644 10.2151 20.0422 10.3292 19.8378 10.4608L14.7889 13.2153L14.5133 13.768L16.9756 15.6014C16.9044 16.1102 16.8511 16.6366 16.8511 17.2068C16.8511 17.8559 16.8422 18.356 16.9133 19.0227L16.9489 19.1806L17.0022 19.6017C17.0467 19.9701 17.1 20.1806 17.1711 20.5579L19.1711 33.006C19.5 35.2166 20.6911 38.2168 22.22 40.4275L21.7133 43.7961C20.7711 43.2434 19.0822 42.1556 17.8556 41.4363C15.3222 39.9537 13.4644 39.866 11.7756 40.6819L11.5444 40.7696L10.9578 41.0942H10.94L6.52222 43.5329L7.50889 45.1119C6.96666 46.1032 6.52222 47.1472 6.16666 48.1209C5.40222 50.2087 6.99333 53.7616 9.31333 55.1213L26.8067 65.3588L27.5622 65.8062L41.0822 73.7189C41.26 75.3155 41.5444 77.4735 41.6867 78.5964C41.7311 78.9648 42.14 79.1578 42.4689 78.9824L47.3933 76.2805C48.2733 75.798 48.6822 74.5172 48.2644 72.7715L48.2556 72.7452Z" fill="#89BCFF"/>
<path d="M48.2467 75.1488C46.7178 68.7274 43.3845 58.7794 36.9133 54.9897C35.6689 54.2616 34.0067 53.2791 33.0644 52.7264L32.6467 48.463C33.0022 48.2876 32.4156 47.6472 32.78 47.4103L32.2378 47.1647L32.8156 45.3576C33.7222 44.761 34.5489 45.1646 34.8156 43.8926L36.3 42.9013L38.0778 35.0938C38.14 34.8482 38.2022 34.6025 38.2467 34.3394L38.2911 34.1376H38.2822C38.38 33.5411 38.4422 32.9182 38.4511 32.2515C38.5311 25.4002 33.7578 17.0138 27.7844 13.5136C25.0467 11.917 22.8067 11.531 20.8778 12.3381L20.6111 12.4258L20.4689 12.5047C20.2467 12.61 20.0245 12.724 19.82 12.8556L14.7711 15.6102L14.4956 16.1628L16.9578 17.9963C16.8867 18.5051 16.8333 19.0314 16.8333 19.6016C16.8333 20.2508 16.8245 20.7508 16.9045 21.4175L16.94 21.5754L16.9933 21.9965C17.0378 22.365 17.0911 22.5755 17.1622 22.9527L19.1622 35.4008C19.4911 37.6115 20.6822 40.6029 22.2111 42.8223L21.7044 46.1909C20.7622 45.6383 19.0733 44.5505 17.8467 43.8312C15.3133 42.3486 13.4556 42.2609 11.7667 43.0767L11.5356 43.1644L10.9489 43.489H10.9311L6.51334 45.9278L7.50001 47.5068C6.95778 48.4981 6.51334 49.542 6.15778 50.5158C5.39334 52.6036 6.98445 56.1564 9.30445 57.5162L26.7978 67.7536L27.5533 68.201L41.0733 76.1138C41.2511 77.7104 40.0067 77.2981 40.1489 78.4297C40.1933 78.7981 40.6022 78.9911 40.9311 78.8157L45.8556 76.1138C46.7356 75.6313 48.6733 76.9121 48.2556 75.1751L48.2467 75.1488Z" fill="#FDEDCC"/>
<path d="M42.2022 79.5701C42.0333 79.5701 41.8644 79.535 41.7133 79.4561C41.3933 79.2982 41.18 78.9911 41.1356 78.649C40.9933 77.5876 40.7356 75.5962 40.5578 74.0347L9.02889 55.5862C6.46 54.0862 4.78889 50.2965 5.65111 47.9367C6.01556 46.9454 6.42445 45.998 6.87778 45.1295L5.74889 43.3311L11.5622 40.1731C13.5089 39.2344 15.6067 39.48 18.14 40.9626C18.7978 41.3486 19.5978 41.8398 20.3356 42.3048C20.6733 42.5153 20.9933 42.7171 21.2956 42.9013L21.6511 40.5503C20.1756 38.3484 18.9667 35.3745 18.6289 33.0849L16.5756 20.3649C16.5311 20.1368 16.4956 19.9526 16.46 19.6718L16.38 19.1543C16.2911 18.4086 16.2911 17.8998 16.3 17.2068C16.3 16.7682 16.3356 16.3295 16.3889 15.8558L13.82 13.9434L14.3711 12.8381L19.5711 10.0046C19.7667 9.88178 20.0067 9.75019 20.2556 9.63615L20.7356 9.44316C22.7889 8.58346 25.2067 8.97822 28.0956 10.6625C34.2111 14.2417 39.1178 22.8562 39.0289 29.8742C39.0289 30.3918 38.9844 30.9181 38.9044 31.4708L38.9311 31.4883L38.8067 32.0761C38.7622 32.3217 38.7 32.5849 38.6289 32.8481L36.3444 42.8662C36.0156 44.454 35.0556 45.2611 34.2556 45.7874L34.14 45.8751C33.82 46.0769 33.5267 46.2436 33.2511 46.3927L33.6067 50.0157L37.2156 52.1387C43.66 55.9108 47.0822 65.3675 48.8067 72.6399C49.26 74.5347 48.8156 76.105 47.6689 76.7454L42.7444 79.4473C42.5756 79.535 42.3978 79.5877 42.2111 79.5877L42.2022 79.5701ZM7.29556 43.7171L8.14889 45.0769L7.99778 45.3576C7.50889 46.2524 7.06445 47.2436 6.68222 48.2963C6.00667 50.1561 7.5 53.4195 9.58889 54.6388L41.5889 73.368L41.6156 73.6399C41.7933 75.2365 42.0689 77.3858 42.22 78.5087L47.1 75.7804C47.7933 75.3944 48.0333 74.254 47.7044 72.8767C46.3267 67.0957 43.0556 56.8319 36.62 53.0598L32.5311 50.6561L32.0511 45.7436L32.3889 45.5769C32.7267 45.4102 33.0822 45.2172 33.4289 44.9891L33.5889 44.8839C34.5578 44.2435 35.0289 43.5943 35.2244 42.6206L37.5178 32.5761C37.58 32.3305 37.6422 32.0936 37.6867 31.848L37.7222 31.655C37.8289 31.0058 37.8822 30.4356 37.8822 29.8567C37.9622 23.1896 33.2956 14.9961 27.4822 11.6012C24.9222 10.1011 22.8244 9.73265 21.0733 10.4608L20.7089 10.6011C20.4778 10.7064 20.2822 10.8117 20.0956 10.9345L15.1711 13.6188L17.5178 15.3646L17.4733 15.6804C17.3933 16.2418 17.3578 16.7243 17.3489 17.2155C17.3489 17.891 17.3489 18.3384 17.4111 18.97L17.4378 19.0665L17.5 19.549C17.5356 19.7859 17.5622 19.9526 17.6067 20.1543L17.6689 20.4614L19.6778 32.9182C20.0067 35.1377 21.1978 38.0238 22.6378 40.1116L22.7622 40.2871L22.0956 44.6733L21.3933 44.261C20.9489 44.0066 20.3533 43.6294 19.7044 43.2259C18.9756 42.7697 18.1933 42.2872 17.5356 41.9012C15.3222 40.6029 13.6067 40.3836 11.98 41.1643L11.7222 41.2696L7.26889 43.7171H7.29556Z" fill="#16110D"/>
<path d="M42.8334 75.7366C41.3045 69.3151 37.9711 59.3672 31.5 55.5775C30.2556 54.8494 28.5934 53.8668 27.6511 53.3142L27.2334 49.0508C28.4956 48.4279 29.9978 47.5244 30.3711 45.7172L30.8867 43.489L32.6645 35.6816C32.7267 35.4359 32.7889 35.1903 32.8334 34.9271L32.8778 34.7254H32.8689C32.9667 34.1288 33.0289 33.506 33.0378 32.8393C33.1178 25.988 28.3445 17.6015 22.3711 14.1013C16.3978 10.6099 11.4911 13.3293 11.4111 20.1806C11.4111 20.8298 11.4022 21.3298 11.4734 21.9965L11.5089 22.1544L11.5622 22.5755C11.6067 22.944 11.66 23.1545 11.7311 23.5317L13.7311 35.9798C14.06 38.1905 15.2511 41.1907 16.78 43.4013L16.2734 46.7699C15.3311 46.2173 13.6422 45.1295 12.4156 44.4101C5.9178 40.6117 2.3978 46.5331 0.726692 51.0947C-0.0377523 53.1826 1.55336 56.7354 3.87336 58.0952L21.3667 68.3326L22.1222 68.78L39.5534 78.9824C41.8645 80.3333 43.5178 78.6841 42.8156 75.7366H42.8334Z" fill="#89BCFF"/>
<path d="M41.1178 80C40.5489 80 39.9178 79.8158 39.2867 79.4473L3.60668 58.5601C1.03779 57.06 -0.63332 53.2703 0.228902 50.9105C1.31335 47.9279 3.28668 44.1382 6.50446 42.9978C8.39779 42.3223 10.4867 42.6469 12.7089 43.9452C13.3667 44.3312 14.1578 44.8225 14.8956 45.2786C15.2333 45.4892 15.5622 45.6909 15.8645 45.8751L16.22 43.5241C14.7445 41.3222 13.5356 38.3484 13.1978 36.0588L11.1445 23.3387C11.1 23.1106 11.0645 22.9264 11.0289 22.6457L10.9489 22.1281C10.8511 21.3386 10.86 20.7947 10.8689 20.1719C10.9133 16.6541 12.1756 14.0312 14.4245 12.7855C16.6733 11.5398 19.5978 11.838 22.6645 13.6364C28.78 17.2156 33.6867 25.8301 33.5978 32.8481C33.5978 33.3656 33.5533 33.892 33.4733 34.4446L33.5 34.4622L33.3845 35.0499C33.34 35.3043 33.2778 35.5675 33.2067 35.8219L30.9222 45.8401C30.54 47.656 29.1889 48.656 27.8289 49.3666L28.1845 52.9896L31.7933 55.1125C38.2378 58.8847 41.6511 68.3414 43.3845 75.6138C43.8022 77.3858 43.4645 78.8683 42.4689 79.5789C42.0778 79.8596 41.6245 80 41.1267 80H41.1178ZM8.48668 43.7522C7.92668 43.7522 7.38446 43.8399 6.8689 44.0242C4.06001 45.0242 2.26446 48.5244 1.26001 51.279C0.584457 53.1387 2.07779 56.4021 4.16668 57.6215L39.8467 78.5087C40.6378 78.9736 41.3311 79.0438 41.8022 78.7017C42.4156 78.2543 42.6022 77.1665 42.2911 75.8594C40.9133 70.0783 37.6422 59.8146 31.2067 56.0424L27.1178 53.6388L26.6378 48.7262L26.9756 48.5595C28.2645 47.9279 29.5 47.1296 29.82 45.6032L32.1133 35.5587C32.1756 35.3131 32.2378 35.0763 32.2822 34.8306L32.3089 34.6289C32.4156 33.9973 32.4689 33.4095 32.4778 32.8305C32.5578 26.1635 27.8911 17.97 22.0778 14.575C19.3667 12.9872 16.8333 12.6977 14.94 13.7417C13.0467 14.7944 11.9889 17.084 11.9533 20.1894C11.9533 20.7772 11.9445 21.286 12.0156 21.9439L12.0422 22.0316L12.1045 22.5141C12.14 22.751 12.1667 22.9176 12.2111 23.1194L12.2733 23.4264L14.2733 35.8833C14.6022 38.1028 15.7933 40.9889 17.2422 43.0767L17.3667 43.2522L16.7 47.6384L15.9978 47.2261C15.5533 46.9629 14.9489 46.5857 14.3 46.1822C13.5711 45.726 12.7889 45.2435 12.14 44.8663C10.8511 44.1119 9.62446 43.7347 8.48668 43.7347V43.7522Z" fill="#16110D"/>
<path d="M33.1711 32.4796L38.4422 29.1461L38.6556 30.5058L35.8378 43.1206L34.0867 45.226L32.7711 45.9804L33.1978 50.3403L27.66 53.3931L27.2422 49.0332L30.1934 47.2963L30.7889 44.1645L33.1711 32.4796Z" fill="#16110D"/>
<path d="M41.3845 72.0872L47.1622 68.9028L48.4156 73.3417L48.3356 74.8944L47.3133 76.4647L42.3 78.8596L42.6467 76.5349L42.06 73.0522L41.3845 72.0872Z" fill="#16110D"/>
<path d="M41.8822 34.5587C42.8067 31.5673 43.4378 29.2338 43.4378 29.2338C43.4378 29.2338 40.5044 28.0583 39.0644 27.7249C37.6689 27.2688 35.9089 27.7074 34.1222 29.1373C30.54 31.9971 28.2467 37.4711 28.9222 41.7346C29.2155 43.568 30.0955 44.5593 31.1444 45.4278C31.1444 45.4278 33.9178 47.7086 36.2111 47.5068C37.1711 47.4191 38.6022 44.1908 39.9355 40.4625C40.9667 38.6116 41.66 36.5413 41.8822 34.5587V34.5587Z" fill="#73A4F1"/>
<path d="M34.1667 32.3042C31.4911 34.4447 29.5356 38.0326 29.0022 41.4889C29.0111 41.5679 29.02 41.6468 29.0289 41.7258C29.3222 43.5592 30.2022 44.5505 31.2511 45.419C31.2511 45.419 34.0245 47.6998 36.3178 47.4981C37.2778 47.4103 38.7089 44.1821 40.0422 40.4538C41.0733 38.6028 41.7667 36.5325 41.9889 34.5499C42.2645 33.6551 42.5133 32.8305 42.7267 32.1024C41.7578 31.734 40.0956 31.1199 39.1178 30.8918C37.7222 30.4356 35.9622 30.8743 34.1756 32.3042H34.1667Z" fill="#FBEBCC"/>
<path d="M35.9178 48.0595C33.5889 48.0595 31.0822 46.0769 30.7889 45.8401C29.7222 44.9628 28.7 43.8663 28.3711 41.8047C27.66 37.3571 29.98 31.7252 33.7667 28.6987C35.6511 27.1986 37.5889 26.6635 39.2333 27.1898C40.6467 27.5144 43.5178 28.6636 43.6422 28.7162L44.0956 28.9005L43.9711 29.3654C43.9711 29.3654 43.3311 31.7076 42.4245 34.6552C42.1933 36.6553 41.4822 38.8046 40.4245 40.7082C38.1667 47.0331 37.0467 47.963 36.2556 48.0332C36.1489 48.0419 36.0333 48.0507 35.9178 48.0507V48.0595ZM37.9356 28.1022C36.8511 28.1022 35.66 28.6022 34.46 29.5584C31.0111 32.3129 28.8156 37.6203 29.4644 41.6381C29.7222 43.2434 30.46 44.1382 31.4911 44.9979C32.3978 45.7348 34.5578 47.1033 36.1489 46.9542C36.2378 46.9278 37.1711 46.5068 39.4022 40.2696C40.4333 38.3922 41.1089 36.3658 41.3222 34.4885L41.34 34.392C42.0067 32.2252 42.5311 30.383 42.7622 29.5584C41.8911 29.2163 39.98 28.4969 38.9311 28.2513C38.6111 28.146 38.2822 28.0934 37.9356 28.0934V28.1022Z" fill="#15100C"/>
<path d="M46.0511 33.1024C46.7356 37.3571 44.38 43.1293 40.7889 45.9979C37.2067 48.8578 33.74 47.7349 33.0645 43.4715C32.38 39.2168 34.7356 33.4446 38.3267 30.576C41.9089 27.7162 45.3756 28.839 46.0511 33.1024V33.1024Z" fill="#140F0C"/>
<path d="M36.9756 48.1297C36.46 48.1297 35.9622 48.0419 35.4911 47.8665C33.9178 47.27 32.86 45.7436 32.5134 43.5592C31.8022 39.1379 34.2556 33.12 37.9711 30.1549C39.9356 28.5846 41.9356 28.0758 43.6245 28.7162C45.1889 29.3128 46.2467 30.8392 46.6022 33.0235C47.3134 37.4448 44.86 43.4627 41.1445 46.4278C39.7311 47.5594 38.3 48.1384 36.9756 48.1384V48.1297ZM42.1578 29.5496C41.0822 29.5496 39.8645 30.0496 38.6734 31.0058C35.2334 33.7516 32.9578 39.3046 33.6156 43.3838C33.9 45.1646 34.7089 46.3927 35.8911 46.8401C37.1711 47.3226 38.8245 46.8577 40.4422 45.5681C43.8822 42.8223 46.1578 37.2694 45.5 33.1902C45.2156 31.4094 44.4067 30.1812 43.2245 29.7338C42.8956 29.611 42.54 29.5496 42.1578 29.5496V29.5496Z" fill="#15100C"/>
<path d="M46.2733 34.5412C46.8156 37.9273 44.94 42.5153 42.0956 44.7874C39.2422 47.0595 36.4956 46.1647 35.9533 42.7785C35.4111 39.3923 37.2867 34.8043 40.1311 32.5323C42.9756 30.2602 45.7311 31.155 46.2733 34.5412V34.5412Z" fill="#FFD111"/>
<path d="M39.0644 46.5945C38.6378 46.5945 38.2289 46.5243 37.8467 46.3752C36.5578 45.8839 35.6956 44.6382 35.4111 42.8662C34.8422 39.3134 36.8067 34.4885 39.7933 32.1024C41.3844 30.8304 43.02 30.4181 44.3978 30.9357C45.6867 31.4269 46.5489 32.6726 46.8333 34.4447C47.4022 37.9975 45.4378 42.8224 42.4511 45.2085C41.3044 46.1208 40.14 46.5945 39.0644 46.5945V46.5945ZM43.1889 31.8217C42.3622 31.8217 41.42 32.2165 40.4867 32.9533C37.7756 35.1114 35.9889 39.48 36.5044 42.6908C36.7267 44.0593 37.34 45.0067 38.2378 45.3488C39.2067 45.7173 40.4867 45.3488 41.74 44.3575C44.4511 42.1907 46.2378 37.8308 45.7222 34.6201C45.5 33.2516 44.8867 32.3042 43.9889 31.9621C43.74 31.8656 43.4644 31.8217 43.18 31.8217H43.1889Z" fill="#73A4F1"/>
<path d="M13.7578 45.0242C13.4467 45.3927 12.8867 45.4365 12.5133 45.1295L9.14446 42.3223C5.98001 39.6818 6.33557 35.7254 7.16224 33.3832C7.33112 32.9007 7.9089 32.6814 8.37112 32.9007C8.77112 33.0937 8.96668 33.5499 8.82446 33.9622C8.31779 35.4096 7.57112 38.7344 10.2733 40.9889L13.6422 43.7961C14.0156 44.1031 14.06 44.6558 13.7489 45.0242H13.7578Z" fill="#140F0C"/>
<path d="M13.0822 45.8841C12.7444 45.8841 12.4156 45.77 12.1578 45.5507L8.78889 42.7435C5.65111 40.1293 5.62445 36.1028 6.64667 33.2079C6.78 32.8306 7.07334 32.5324 7.44667 32.3745C7.82889 32.2166 8.25556 32.2341 8.62889 32.4096C9.28667 32.7254 9.60667 33.471 9.37556 34.1465C8.83334 35.6992 8.28222 38.5941 10.6556 40.5767L14.0244 43.3839C14.6289 43.8839 14.7089 44.7875 14.1933 45.384C13.9444 45.6735 13.5978 45.849 13.2156 45.8841C13.1711 45.8841 13.1356 45.8841 13.0911 45.8841H13.0822ZM7.98889 33.3658C7.98889 33.3658 7.9 33.3658 7.86445 33.3921C7.82 33.4096 7.73111 33.4623 7.69556 33.5675C7.26 34.8044 6.09556 39.0591 9.50889 41.9014L12.8778 44.7085C12.94 44.7612 13.0289 44.7875 13.1178 44.7875C13.2067 44.7875 13.2867 44.7436 13.34 44.6735C13.4556 44.5419 13.4378 44.3313 13.3044 44.2173L9.93556 41.4101C6.94889 38.9187 7.81111 35.2431 8.32667 33.7868C8.38 33.6377 8.30889 33.471 8.15778 33.4009C8.10445 33.3745 8.06 33.3658 8.00667 33.3658H7.98889Z" fill="#15100C"/>
<path d="M8.68223 32.4007C8.30889 32.2252 7.88223 32.2077 7.5 32.3656C7.35778 32.4182 7.25111 32.5147 7.13556 32.6112C7.33111 32.9446 7.54445 33.2428 7.78445 33.506C7.82889 33.4358 7.88223 33.392 7.92667 33.3832C7.97111 33.3657 8.00667 33.3569 8.05112 33.3569C8.10445 33.3569 8.15778 33.3657 8.20223 33.392C8.35334 33.4622 8.42445 33.6288 8.37111 33.778C8.35334 33.8394 8.32667 33.9095 8.30889 33.971C8.61111 34.199 8.93111 34.3833 9.28667 34.5236H9.29556C9.34 34.392 9.37556 34.2604 9.42 34.1376C9.65111 33.4622 9.34 32.7165 8.67334 32.4007H8.68223Z" fill="#73A4F1"/>
<path d="M18.14 44.5769C18.4067 46.2436 17.2511 47.8051 15.5533 48.0683C13.8644 48.3315 12.2822 47.1911 12.0156 45.5155C11.7489 43.8488 12.9044 42.2873 14.6022 42.0241C16.2911 41.7609 17.8733 42.9013 18.14 44.5769Z" fill="#73A4F1"/>
<path d="M14.54 43.5242C13.2955 43.7172 12.3444 44.6207 12.0333 45.7524C12.4244 47.2612 13.9089 48.2701 15.5 48.0244C16.7444 47.8315 17.6955 46.9279 18.0067 45.7962C17.6155 44.2874 16.1311 43.2785 14.54 43.5242V43.5242Z" fill="#FBEBCC"/>
<path d="M18.6911 44.4979C18.54 43.5417 18.0244 42.7083 17.2333 42.1381C16.4422 41.5679 15.4822 41.3398 14.5133 41.489C12.5222 41.796 11.1533 43.6382 11.4644 45.6032C11.7489 47.384 13.3044 48.656 15.0733 48.656C15.26 48.656 15.4467 48.6385 15.6422 48.6122C17.6333 48.3051 19.0022 46.4542 18.6911 44.4979ZM14.6911 42.5767C14.8244 42.5592 14.9578 42.5504 15.0911 42.5504C15.3489 42.5504 15.6067 42.5943 15.8555 42.6732C15.8555 42.6908 15.8644 42.6996 15.8644 42.7171C16.1311 44.3839 14.9755 45.9454 13.2778 46.2085C13.1355 46.2348 12.9933 46.2261 12.8422 46.2348C12.7089 45.998 12.6111 45.7348 12.5667 45.4541C12.3533 44.0856 13.3044 42.8048 14.6822 42.5855L14.6911 42.5767Z" fill="#FFD111"/>
<path d="M11.8466 15.5927C12.3444 14.5838 13.0378 13.768 13.8911 13.1715C14.94 10.2766 17.1 5.83771 20.9222 3.82004C23.6333 2.39013 26.8244 2.39891 30.4244 3.82004C42.5578 8.65366 39.4822 23.637 38.4066 27.6723C38.2555 28.2338 38.5844 28.804 39.1444 28.9794C39.7489 29.1724 40.3978 28.8215 40.5489 28.2075C41.6866 23.751 44.8511 7.19744 31.26 1.78483C27.02 0.100524 23.1889 0.126841 19.8733 1.88133C14.3622 4.79378 11.9533 11.5924 11.1889 14.3031C11.0378 14.847 11.34 15.3821 11.8555 15.5839L11.8466 15.5927Z" fill="#140F0C"/>
<path d="M39.4733 29.5847C39.3044 29.5847 39.1267 29.5584 38.9667 29.5058C38.1222 29.2426 37.6422 28.3741 37.8644 27.5407C39.0022 23.2686 41.8289 8.96069 30.2111 4.33761C26.7711 2.9691 23.7311 2.96033 21.18 4.30252C17.4289 6.28509 15.3311 10.8204 14.4156 13.3557L14.3533 13.5136L14.2111 13.6101C13.4289 14.1628 12.7978 14.9084 12.3444 15.8295L12.1222 16.2857L11.6422 16.1015C10.8511 15.7857 10.4244 14.9523 10.6467 14.1628C11.4467 11.3292 13.9178 4.40779 19.6067 1.40761C23.0733 -0.425834 27.0644 -0.469697 31.4644 1.28479C45.3667 6.82898 42.3444 23.4001 41.0822 28.3566C40.9667 28.7952 40.6822 29.1636 40.2822 29.383C40.0333 29.5233 39.7578 29.5935 39.4733 29.5935V29.5847ZM25.3222 2.19713C26.9844 2.19713 28.7533 2.56557 30.6289 3.31123C43.0822 8.27644 40.14 23.3212 38.94 27.8127C38.8689 28.0846 39.0289 28.3653 39.3044 28.4618C39.4556 28.5057 39.6067 28.4969 39.74 28.418C39.8733 28.3478 39.9622 28.225 39.9978 28.0759C41.1978 23.3475 44.1133 7.50446 31.0378 2.29363C26.9578 0.670722 23.2867 0.697039 20.1222 2.3638C14.8156 5.17099 12.4689 11.7503 11.7133 14.4522C11.6867 14.54 11.6867 14.6189 11.7133 14.6979C12.1756 13.9522 12.7533 13.3206 13.4289 12.8206C14.6289 9.56599 16.8511 5.34644 20.6644 3.32877C22.0956 2.57434 23.66 2.19713 25.3311 2.19713H25.3222Z" fill="#15100C"/>
</svg>
